<?xml version="1.0" encoding="UTF-8" standalone="no"?>
<!-- Created with Inkscape (http://www.inkscape.org/) -->

<svg
   xmlns:dc="http://purl.org/dc/elements/1.1/"
   xmlns:cc="http://creativecommons.org/ns#"
   xmlns:rdf="http://www.w3.org/1999/02/22-rdf-syntax-ns#"
   xmlns:svg="http://www.w3.org/2000/svg"
   xmlns="http://www.w3.org/2000/svg"
   xmlns:sodipodi="http://sodipodi.sourceforge.net/DTD/sodipodi-0.dtd"
   xmlns:inkscape="http://www.inkscape.org/namespaces/inkscape"
   version="1.1"
   id="svg6652"
   width="568.35297"
   height="568.92352"
   viewBox="0 0 568.35296 568.92353"
   sodipodi:docname="kinesio2.svg"
   inkscape:version="0.92.2 5c3e80d, 2017-08-06">
  <metadata
     id="metadata6658">
    <rdf:RDF>
      <cc:Work
         rdf:about="">
        <dc:format>image/svg+xml</dc:format>
        <dc:type
           rdf:resource="http://purl.org/dc/dcmitype/StillImage" />
        <dc:title />
      </cc:Work>
    </rdf:RDF>
  </metadata>
  <defs
     id="defs6656" />
  <sodipodi:namedview
     pagecolor="#ffffff"
     bordercolor="#666666"
     borderopacity="1"
     objecttolerance="10"
     gridtolerance="10"
     guidetolerance="10"
     inkscape:pageopacity="0"
     inkscape:pageshadow="2"
     inkscape:window-width="1280"
     inkscape:window-height="704"
     id="namedview6654"
     showgrid="false"
     inkscape:zoom="0.5"
     inkscape:cx="-16.3235"
     inkscape:cy="299.71785"
     inkscape:window-x="0"
     inkscape:window-y="1"
     inkscape:window-maximized="1"
     inkscape:current-layer="svg6652"
     inkscape:snap-global="false" />
  <path
     style="fill:#ffffff;stroke:#ffffff;stroke-opacity:1;fill-opacity:1;stroke-width:0.1;stroke-miterlimit:4;stroke-dasharray:none"
     d="m 308.90737,525.2064 c -2.89843,-3.68476 -4.42051,-11.43873 -4.70315,-23.95942 -0.13657,-6.05 -0.71207,-13.025 -1.27887,-15.5 -0.56681,-2.475 -1.54423,-8.30035 -2.17205,-12.94523 -0.62782,-4.64487 -2.20397,-13.19487 -3.50256,-19 -3.62642,-16.21121 -4.1155,-24.03508 -1.94964,-31.18844 l 1.81319,-5.98856 -4.16125,-17.68889 c -3.12022,-13.26359 -4.41111,-21.31639 -5.15999,-32.18888 -1.19539,-17.35519 -6.01141,-53.13102 -7.06468,-52.48006 -0.41072,0.25384 -0.95946,1.92819 -1.21942,3.72079 -0.25996,1.7926 -2.33468,13.94229 -4.61049,26.99932 -2.2758,13.05703 -4.14123,26.55703 -4.14538,30 -0.01,8.07238 -1.54445,17.69036 -4.03688,25.29906 -1.64225,5.01332 -1.95121,8.49541 -1.81893,20.5 0.14803,13.43408 -0.13644,15.88101 -4.00616,34.46089 -5.551,26.65223 -6.16282,30.81863 -6.20427,42.25019 -0.0501,13.80714 -3.31323,27.60309 -6.79,28.70658 -0.90678,0.2878 -5.24479,0.33189 -9.64002,0.098 -7.44878,-0.39641 -8.18131,-0.63792 -10.78979,-3.55731 -3.40298,-3.80861 -3.1384,-5.11703 2.83889,-14.03892 2.41038,-3.59782 5.07376,-8.19587 5.91861,-10.21789 2.18402,-5.22709 1.96336,-21.0397 -0.54761,-39.24063 -1.20706,-8.74948 -2.12039,-21.04217 -2.19182,-29.5 -0.10978,-13.0001 0.13088,-15.22409 2.32654,-21.5 2.21316,-6.32591 2.43544,-8.44448 2.30831,-22 -0.0774,-8.25 -0.88466,-20.175 -1.79396,-26.5 -4.42831,-30.80271 -4.00137,-67.46978 0.96235,-82.65132 1.4114,-4.31677 2.94396,-11.90332 3.40567,-16.85899 0.56413,-6.0548 1.73795,-11.13903 3.57857,-15.5 2.51534,-5.95957 2.69237,-7.22487 2.1672,-15.48969 -0.31453,-4.95 -1.16722,-10.98672 -1.89486,-13.41494 l -1.32298,-4.41494 -1.82183,10.69806 c -2.79851,16.43326 -5.66124,24.30573 -17.5026,48.13182 -14.08265,28.3358 -15.4966,32.78769 -14.62849,46.05852 0.55887,8.54353 0.41669,10.25877 -0.94397,11.38801 -1.35105,1.12128 -1.91222,1.04869 -3.58318,-0.46351 -1.09058,-0.98698 -1.98124,-3.07199 -1.98124,-4.63803 0,-4.34697 -1.65813,-3.38539 -2.42273,1.40499 -0.3731,2.3375 -1.34098,5.2625 -2.15086,6.5 -1.6837,2.57269 -5.20509,2.99032 -6.07606,0.72061 -0.5173,-1.34806 -0.7289,-1.33517 -1.78471,0.10874 -0.65881,0.90097 -2.06809,1.47282 -3.13174,1.27076 -1.48678,-0.28243 -2.00499,-1.34797 -2.2414,-4.60874 -0.27279,-3.76266 -0.58672,-4.24137 -2.78138,-4.24137 -1.36064,0 -2.7178,-0.63563 -3.01592,-1.41251 -0.29812,-0.77689 0.79385,-5.72689 2.4266,-11 1.63275,-5.27312 2.59234,-9.58749 2.13243,-9.58749 -0.45991,0 -1.11431,0.45 -1.45423,1 -1.41495,2.28944 -8.5,-0.0136 -8.5,-2.76301 0,-0.57338 2.5875,-2.74796 5.75,-4.8324 6.16424,-4.06291 17.20247,-14.14749 20.42783,-18.66295 1.09705,-1.53586 4.09411,-11.28624 6.76234,-22 2.63564,-10.5829 6.21269,-22.78905 7.949,-27.12476 3.95744,-9.88208 5.67102,-19.98245 7.51953,-44.32265 1.60086,-21.07917 2.7582,-25.30728 8.49851,-31.0476 2.0463,-2.04629 5.31386,-3.82602 8.91186,-4.854 6.81405,-1.94682 22.2429,-9.69864 24.69363,-12.40666 1.16581,-1.2882 1.91155,-4.19805 2.23227,-8.71021 0.46431,-6.53213 0.31575,-7.08998 -4.13167,-15.51499 -5.16121,-9.77717 -5.55412,-11.988395 -2.50916,-14.121165 1.76049,-1.23309 2.06123,-2.34478 1.84138,-6.8067 -0.49768,-10.1009 -0.24763,-10.90939 4.9123,-15.8829 14.51361,-13.98926 35.94448,-4.95403 36.41998,15.35461 0.084,3.5899 0.60258,5.81924 1.42711,6.13564 1.7035,0.65369 1.65125,4.970275 -0.10119,8.359405 -2.53003,4.89295 -6.60379,18.57871 -6.59998,22.1726 0.008,7.38196 6.31,13.38396 22.86653,21.77741 10.50767,5.32694 16.45421,10.59098 19.48687,17.25033 1.75801,3.86038 2.06193,6.63208 2.13821,19.5 0.0839,14.1579 0.24745,15.36465 2.91274,21.49536 1.5531,3.57244 3.25351,9.64744 3.7787,13.5 0.52519,3.85255 1.54825,8.12964 2.27348,9.50464 0.72522,1.375 2.99946,5.58649 5.05385,9.35886 2.0544,3.77238 5.21337,11.42238 7.01993,17 5.27799,16.29543 11.2867,29.86611 14.45257,32.64114 1.56865,1.375 5.56779,4.22907 8.88696,6.34238 7.04966,4.4885 8.56371,6.07567 7.76968,8.14489 -0.73662,1.91959 -4.90627,1.9452 -8.56614,0.0526 -2.81408,-1.45522 -4.09087,-1.17961 -4.06181,0.87679 0.008,0.59583 0.43267,0.42344 0.94277,-0.38309 0.71733,-1.13418 1.36626,-0.45449 2.86425,3 1.06524,2.45653 3.11599,7.10991 4.55723,10.34085 1.44124,3.23094 2.62044,6.50756 2.62044,7.28139 0,2.15411 -2.86822,2.77372 -4.78725,1.03417 -1.59146,-1.44263 -1.71275,-1.25648 -1.71275,2.62872 0,3.79338 -0.23193,4.18129 -2.5,4.18129 -1.95949,0 -2.99153,-0.97292 -4.77345,-4.5 l -2.27346,-4.5 0.17666,5.0976 c 0.2023,5.83746 -0.4644,7.40241 -3.15358,7.40241 -2.23695,0 -3.97617,-2.81442 -3.97617,-6.43426 0,-1.41116 -0.45,-2.56574 -1,-2.56574 -0.55,0 -1,1.0699 -1,2.37756 0,1.30765 -0.7237,2.97816 -1.60821,3.71225 -2.49498,2.07065 -3.99785,-0.88499 -4.74599,-9.33379 -0.35339,-3.99081 -1.51461,-11.08102 -2.5805,-15.75602 -1.06588,-4.675 -2.43509,-11.02581 -3.04267,-14.11291 -1.10649,-5.62199 -3.00317,-9.11933 -12.74476,-23.5004 -2.87217,-4.24005 -6.19298,-10.67413 -7.37958,-14.29794 -1.1866,-3.62381 -4.29161,-12.43875 -6.90001,-19.58875 -2.60841,-7.15 -5.32039,-15.46843 -6.02663,-18.48539 l -1.28407,-5.4854 -2.2922,5.9854 c -4.26311,11.13188 -2.99848,21.19128 5.65541,44.98539 l 4.36439,12 -0.002,27 c -0.002,24.13494 -0.35204,30.01184 -3.30131,55.38321 l -3.29937,28.38321 2.58853,15.61679 c 5.2021,31.38472 5.20784,31.95633 0.64232,63.96404 -2.22387,15.59098 -4.0434,30.25907 -4.0434,32.59574 0,3.60277 0.91193,5.5113 6,12.55701 3.3,4.56968 6,8.94368 6,9.72 0,4.65218 -5.45502,8.28 -12.45034,8.28 -3.37743,0 -4.54961,-0.38646 -4.54961,-1.5 0,-1.00353 1.00357,-1.5 3.03212,-1.5 4.39704,0 9.96788,-2.58055 9.96788,-4.61737 0,-0.94569 -2.3126,-4.88902 -5.13912,-8.76295 -2.82652,-3.87393 -5.55263,-8.54112 -6.05803,-10.37152 -0.6867,-2.48703 0.13422,-10.70929 3.24865,-32.53808 4.76345,-33.38676 4.80468,-38.81275 0.48404,-63.71008 -2.90474,-16.73829 -3.09334,-23.55165 -1.08504,-39.19878 3.64443,-28.39456 4.66428,-42.22365 4.70048,-63.73758 0.0209,-12.41 -0.27333,-23.91364 -0.6538,-25.56364 -0.38047,-1.65 -2.88794,-9.525 -5.57217,-17.5 -7.68515,-22.83309 -8.23687,-31.26489 -2.95503,-45.16159 1.11596,-2.93613 2.02924,-7.70091 2.02952,-10.58841 3.7e-4,-3.89001 0.37161,-5.25 1.43311,-5.25 1.6385,0 1.57285,-0.1857 5.12593,14.5 1.46375,6.05 3.7576,13.925 5.09744,17.5 1.33985,3.575 4.25371,11.675 6.47526,18 4.05814,11.55401 8.08195,19.22907 13.92099,26.55307 5.0384,6.31975 6.91769,10.87814 9.60005,23.28578 4.8607,22.48381 5.00438,23.00251 5.44881,19.6697 0.80372,-6.02719 4.5508,-3.62528 6.22682,3.99145 0.24205,1.1 0.49918,0.2 0.5714,-2 0.29667,-9.03685 3.28879,-8.23375 7.66224,2.05658 1.51163,3.55673 2.88549,6.32971 3.05302,6.16218 0.16754,-0.16753 -0.57721,-3.13788 -1.65498,-6.60078 -2.5201,-8.09709 -2.51203,-10.11798 0.0404,-10.11798 2.47585,0 2.4741,-0.15037 -0.0595,-5.11661 -2.05004,-4.0184 -2.27675,-8.50543 -0.41677,-8.24857 0.53694,0.0742 2.09773,0.47656 3.46842,0.89424 3.85704,1.17535 1.07484,-1.64167 -4.24581,-4.29892 -6.19027,-3.09158 -8.2847,-5.73388 -12.11572,-15.28499 -1.86307,-4.64483 -4.30974,-10.69515 -5.43703,-13.44515 -1.1273,-2.75 -3.01846,-8.15 -4.20259,-12 -1.18412,-3.85 -3.74127,-9.925 -5.68255,-13.5 -1.94128,-3.575 -4.19323,-7.74838 -5.00433,-9.27417 -0.8111,-1.5258 -1.92403,-6.0164 -2.47318,-9.97912 -0.54915,-3.96271 -2.17976,-9.91434 -3.62358,-13.22582 -2.36994,-5.43561 -2.68134,-7.62483 -3.20346,-22.52089 -0.63356,-18.07557 -1.24025,-20.25132 -7.25288,-26.01092 -1.78806,-1.71281 -6.40102,-4.69438 -10.25102,-6.6257 -3.85,-1.93133 -10.50674,-5.84067 -14.79277,-8.68744 -6.52864,-4.33631 -8.21984,-6.04686 -10.42551,-10.54483 -2.52281,-5.14469 -2.5803,-5.62494 -1.37659,-11.5 0.6909,-3.37211 2.51354,-9.28111 4.05032,-13.13111 2.69321,-6.74715 2.72298,-7.01199 0.82416,-7.33202 -1.50164,-0.25309 -1.81976,-0.84743 -1.33813,-2.500005 0.34751,-1.19239 0.90153,-4.51335 1.23115,-7.37991 0.50644,-4.40427 0.17149,-6.08639 -2.16146,-10.85477 -2.21705,-4.53148 -3.57325,-6.01178 -6.88598,-7.51611 -7.9079,-3.59101 -17.42678,-1.50699 -22.91656,5.01724 -2.55123,3.03197 -2.70863,3.80243 -2.70863,13.25893 0,9.550185 -0.0976,10.014375 -2.00156,9.516485 -1.70516,-0.44591 -1.33495,0.6995 2.5,7.73481 4.369,8.01504 4.50156,8.51742 4.50156,17.06039 v 8.80218 l -3.90895,3.60872 c -4.4491,4.10739 -14.3311,9.28645 -23.39946,12.26344 -12.87107,4.22536 -15.21856,8.46448 -16.67787,30.11709 -2.0026,29.71373 -3.24672,36.88693 -9.31437,53.70353 -1.88524,5.225 -4.6587,14.675 -6.16325,21 -5.47898,23.03327 -4.76114,21.50833 -14.88328,31.61758 -5.03405,5.02764 -8.59411,8.92375 -7.91125,8.65803 2.35884,-0.91787 2.43711,2.67766 0.20546,9.43886 -1.23182,3.73204 -2.44671,7.46053 -2.69975,8.28553 -0.25304,0.825 0.48119,0.0375 1.63163,-1.75 3.70931,-5.76339 5.73218,-3.93088 3.5746,3.23822 -1.81409,6.02777 -1.83777,9.33438 -0.0306,4.27086 3.11488,-8.7275 6.78422,-11.10192 7.40108,-4.78921 l 0.32401,3.31585 1.91129,-3.14286 c 2.39559,-3.93923 4.88772,-4.13166 5.08799,-0.39286 0.081,1.5125 0.46595,-1.075 0.85542,-5.75 0.82696,-9.92642 2.05776,-13.12021 15.99294,-41.5 5.40128,-11 10.57262,-22.25 11.49187,-25 1.78771,-5.34807 4.59783,-18.39507 6.53056,-30.32063 1.18506,-7.31212 3.17235,-10.09464 5.05308,-7.07509 1.92499,3.09063 5.12181,19.88287 5.21544,27.39572 0.0822,6.59183 -0.46235,9.60509 -3.09345,17.11869 -2.13818,6.10599 -3.19316,10.9854 -3.19316,14.76878 0,3.44314 -0.97083,8.42883 -2.48547,12.76406 -5.39956,15.45471 -6.09408,44.58186 -1.91208,80.18974 3.07537,26.1854 3.04153,46.20149 -0.0899,53.15873 -2.89761,6.43782 -3.17381,25.46971 -0.6603,45.5 2.95419,23.54219 3.42235,31.57977 2.28808,39.28264 -0.84342,5.7277 -1.86523,8.07151 -6.56956,15.06916 -3.06394,4.55759 -5.5708,8.74815 -5.5708,9.31237 0,2.69367 3.71977,4.22201 10.77738,4.42808 3.98857,0.11647 7.39818,0.0309 7.57691,-0.19025 1.5431,-1.90891 3.83845,-14.63817 3.7462,-20.7752 -0.1593,-10.59756 1.31089,-21.30953 6.53666,-47.6268 4.30014,-21.65579 4.53691,-23.69688 4.0512,-34.92391 -0.43835,-10.13252 -0.21104,-12.91075 1.51302,-18.49264 2.58674,-8.37489 4.78993,-21.90577 4.79482,-29.44742 0.005,-8.23003 7.74588,-53.95774 10.13718,-59.88603 1.31774,-3.26681 4.3263,-3.62813 5.88947,-0.70731 1.46637,2.73992 6.57926,40.99151 7.81368,58.45731 0.7274,10.29183 1.95994,17.8406 4.65342,28.5 2.90509,11.49682 3.54496,15.63914 3.08946,20 -1.94768,18.64645 -1.8778,20.60598 1.27511,35.75917 4.75725,22.86378 6.53149,34.91257 6.66192,45.24083 0.14753,11.68187 2.05014,21.21314 4.86227,24.35792 1.16671,1.30473 2.2338,2.88295 2.3713,3.50716 0.47427,2.15303 -3.60993,1.12845 -5.60326,-1.40566 z m -74.41757,-1.06359 c -0.33229,-0.33229 -1.1948,-0.36781 -1.91667,-0.0789 -0.79773,0.31922 -0.56078,0.55618 0.60417,0.60416 1.05416,0.0434 1.64479,-0.19293 1.3125,-0.52522 z m 96.39839,-1.14583 c 1.26951,-1.61876 1.22245,-1.63998 -0.62756,-0.28297 -1.1,0.80687 -2.1875,1.59437 -2.41667,1.75 -0.22916,0.15563 0.0532,0.28297 0.62756,0.28297 0.57432,0 1.66182,-0.7875 2.41667,-1.75 z m -101.47257,-1.07874 c -0.91025,-1.00581 -1.70719,-2.69331 -1.77099,-3.75 -0.10731,-1.77733 -0.15134,-1.78459 -0.58765,-0.0969 -0.41103,1.58989 2.11834,5.6756 3.51363,5.6756 0.27499,0 -0.24475,-0.82293 -1.15499,-1.82874 z m 78.02812,-6.35876 c -0.31922,-0.79773 -0.55618,-0.56078 -0.60416,0.60417 -0.0434,1.05416 0.19292,1.64479 0.52522,1.3125 0.33229,-0.33229 0.36781,-1.1948 0.0789,-1.91667 z m -55,-6 c -0.31922,-0.79773 -0.55618,-0.56078 -0.60416,0.60417 -0.0434,1.05416 0.19292,1.64479 0.52522,1.3125 0.33229,-0.33229 0.36782,-1.1948 0.0789,-1.91667 z m 53.97917,-1.0625 c -0.27741,-0.6875 -0.50439,-0.125 -0.50439,1.25 0,1.375 0.22698,1.9375 0.50439,1.25 0.27741,-0.6875 0.27741,-1.8125 0,-2.5 z m -0.95655,-9 c -0.23835,-1.2375 -0.43337,-0.225 -0.43337,2.25 0,2.475 0.19502,3.4875 0.43337,2.25 0.23836,-1.2375 0.23836,-3.2625 0,-4.5 z m 14.97738,0.0625 c -0.31922,-0.79773 -0.55618,-0.56078 -0.60416,0.60417 -0.0434,1.05416 0.19292,1.64479 0.52522,1.3125 0.33229,-0.33229 0.36781,-1.1948 0.0789,-1.91667 z m -13.99012,-6.54347 c -0.25354,-0.97297 -0.47766,-0.41903 -0.49804,1.23097 -0.0204,1.65 0.18706,2.44606 0.46099,1.76903 0.27392,-0.67703 0.29059,-2.02703 0.0371,-3 z m -67,-1 c -0.25354,-0.97297 -0.47766,-0.41903 -0.49804,1.23097 -0.0204,1.65 0.18706,2.44606 0.46099,1.76903 0.27392,-0.67703 0.29059,-2.02703 0.0371,-3 z m 80.96929,-1.51903 c -0.27741,-0.6875 -0.50439,-0.125 -0.50439,1.25 0,1.375 0.22698,1.9375 0.50439,1.25 0.27741,-0.6875 0.27741,-1.8125 0,-2.5 z m -66.96929,-3.48097 c -0.25354,-0.97297 -0.47766,-0.41903 -0.49804,1.23097 -0.0204,1.65 0.18706,2.44606 0.46099,1.76903 0.27392,-0.67703 0.29059,-2.02703 0.0371,-3 z m 50.99012,-3.45653 c -0.31922,-0.79773 -0.55618,-0.56078 -0.60416,0.60417 -0.0434,1.05416 0.19292,1.64479 0.52522,1.3125 0.33229,-0.33229 0.36781,-1.1948 0.0789,-1.91667 z m 16.97917,-1.0625 c -0.27741,-0.6875 -0.50439,-0.125 -0.50439,1.25 0,1.375 0.22698,1.9375 0.50439,1.25 0.27741,-0.6875 0.27741,-1.8125 0,-2.5 z m -67,-4 c -0.27741,-0.6875 -0.50438,-0.125 -0.50438,1.25 0,1.375 0.22697,1.9375 0.50438,1.25 0.27741,-0.6875 0.27741,-1.8125 0,-2.5 z m 49,-1 c -0.27741,-0.6875 -0.50439,-0.125 -0.50439,1.25 0,1.375 0.22698,1.9375 0.50439,1.25 0.27741,-0.6875 0.27741,-1.8125 0,-2.5 z m -63.95502,-3.98834 c -0.23919,-1.24391 -0.44398,-0.46166 -0.45508,1.73834 -0.0111,2.2 0.18461,3.21775 0.4349,2.26166 0.25029,-0.95609 0.25937,-2.75609 0.0202,-4 z m 82.95502,1.98834 c -0.27741,-0.6875 -0.50439,-0.125 -0.50439,1.25 0,1.375 0.22698,1.9375 0.50439,1.25 0.27741,-0.6875 0.27741,-1.8125 0,-2.5 z m -19.96929,-5.48097 c -0.25354,-0.97297 -0.47766,-0.41903 -0.49804,1.23097 -0.0204,1.65 0.18706,2.44606 0.46099,1.76903 0.27392,-0.67703 0.29059,-2.02703 0.0371,-3 z m 21,-1 c -0.25354,-0.97297 -0.47766,-0.41903 -0.49804,1.23097 -0.0204,1.65 0.18706,2.44606 0.46099,1.76903 0.27392,-0.67703 0.29059,-2.02703 0.0371,-3 z m -67.00988,-1.45653 c -0.31922,-0.79773 -0.55618,-0.56078 -0.60416,0.60417 -0.0434,1.05416 0.19293,1.64479 0.52522,1.3125 0.33229,-0.33229 0.36782,-1.1948 0.0789,-1.91667 z m -18.02083,-4.0625 c -0.27741,-0.6875 -0.50438,-0.125 -0.50438,1.25 0,1.375 0.22697,1.9375 0.50438,1.25 0.27741,-0.6875 0.27741,-1.8125 0,-2.5 z m 63.02083,-0.9375 c -0.31922,-0.79773 -0.55618,-0.56078 -0.60416,0.60417 -0.0434,1.05416 0.19292,1.64479 0.52522,1.3125 0.33229,-0.33229 0.36781,-1.1948 0.0789,-1.91667 z m 22.97917,-1.0625 c -0.27741,-0.6875 -0.50439,-0.125 -0.50439,1.25 0,1.375 0.22698,1.9375 0.50439,1.25 0.27741,-0.6875 0.27741,-1.8125 0,-2.5 z m -87,-5 c -0.27741,-0.6875 -0.50438,-0.125 -0.50438,1.25 0,1.375 0.22697,1.9375 0.50438,1.25 0.27741,-0.6875 0.27741,-1.8125 0,-2.5 z m 88,-2 c -0.27741,-0.6875 -0.50439,-0.125 -0.50439,1.25 0,1.375 0.22698,1.9375 0.50439,1.25 0.27741,-0.6875 0.27741,-1.8125 0,-2.5 z m -65.97917,-0.9375 c -0.31922,-0.79773 -0.55618,-0.56078 -0.60416,0.60417 -0.0434,1.05416 0.19293,1.64479 0.52522,1.3125 0.33229,-0.33229 0.36782,-1.1948 0.0789,-1.91667 z m -23.02083,-5.0625 c -0.27741,-0.6875 -0.50438,-0.125 -0.50438,1.25 0,1.375 0.22697,1.9375 0.50438,1.25 0.27741,-0.6875 0.27741,-1.8125 0,-2.5 z m 90,-1 c -0.27741,-0.6875 -0.50439,-0.125 -0.50439,1.25 0,1.375 0.22698,1.9375 0.50439,1.25 0.27741,-0.6875 0.27741,-1.8125 0,-2.5 z m -28.97917,-1.9375 c -0.31922,-0.79773 -0.55618,-0.56078 -0.60416,0.60417 -0.0434,1.05416 0.19292,1.64479 0.52522,1.3125 0.33229,-0.33229 0.36781,-1.1948 0.0789,-1.91667 z m 29.97917,-5.0625 c -0.27741,-0.6875 -0.50439,-0.125 -0.50439,1.25 0,1.375 0.22698,1.9375 0.50439,1.25 0.27741,-0.6875 0.27741,-1.8125 0,-2.5 z m -91.9447,-4.48625 c -0.22985,-1.52006 -0.42406,-0.51375 -0.43157,2.23625 -0.007,2.75 0.18056,3.99369 0.41792,2.76375 0.23736,-1.22994 0.24351,-3.47994 0.0136,-5 z m 60.97175,0.98625 c -0.25153,-0.9625 -0.45733,-0.175 -0.45733,1.75 0,1.925 0.2058,2.7125 0.45733,1.75 0.25152,-0.9625 0.25152,-2.5375 0,-3.5 z m -34.00622,0.5625 c -0.31922,-0.79773 -0.55618,-0.56078 -0.60416,0.60417 -0.0434,1.05416 0.19293,1.64479 0.52522,1.3125 0.33229,-0.33229 0.36782,-1.1948 0.0789,-1.91667 z m 1,-6 c -0.31922,-0.79773 -0.55618,-0.56078 -0.60416,0.60417 -0.0434,1.05416 0.19293,1.64479 0.52522,1.3125 0.33229,-0.33229 0.36782,-1.1948 0.0789,-1.91667 z m 64.00988,-5.54347 c -0.25354,-0.97297 -0.47766,-0.41903 -0.49804,1.23097 -0.0204,1.65 0.18706,2.44606 0.46099,1.76903 0.27392,-0.67703 0.29059,-2.02703 0.0371,-3 z m -63.98726,-9.51903 c -0.23835,-1.2375 -0.43337,-0.225 -0.43337,2.25 0,2.475 0.19502,3.4875 0.43337,2.25 0.23836,-1.2375 0.23836,-3.2625 0,-4.5 z m -28.0164,0.5 c -0.25153,-0.9625 -0.45733,-0.175 -0.45733,1.75 0,1.925 0.2058,2.7125 0.45733,1.75 0.25152,-0.9625 0.25152,-2.5375 0,-3.5 z m 90.97295,0.5 c -0.27741,-0.6875 -0.50439,-0.125 -0.50439,1.25 0,1.375 0.22698,1.9375 0.50439,1.25 0.27741,-0.6875 0.27741,-1.8125 0,-2.5 z m -27.95502,-2.98834 c -0.23919,-1.24391 -0.44398,-0.46166 -0.45508,1.73834 -0.0111,2.2 0.18461,3.21775 0.4349,2.26166 0.25029,-0.95609 0.25937,-2.75609 0.0202,-4 z m 26.95502,-4.01166 c -0.27741,-0.6875 -0.50439,-0.125 -0.50439,1.25 0,1.375 0.22698,1.9375 0.50439,1.25 0.27741,-0.6875 0.27741,-1.8125 0,-2.5 z m -1,-6 c -0.27741,-0.6875 -0.50439,-0.125 -0.50439,1.25 0,1.375 0.22698,1.9375 0.50439,1.25 0.27741,-0.6875 0.27741,-1.8125 0,-2.5 z m -85,-3 c -0.27741,-0.6875 -0.50438,-0.125 -0.50438,1.25 0,1.375 0.22697,1.9375 0.50438,1.25 0.27741,-0.6875 0.27741,-1.8125 0,-2.5 z m 84.02083,-1.9375 c -0.31922,-0.79773 -0.55618,-0.56078 -0.60416,0.60417 -0.0434,1.05416 0.19292,1.64479 0.52522,1.3125 0.33229,-0.33229 0.36781,-1.1948 0.0789,-1.91667 z m -82.95238,-16.09267 c -0.20972,-2.32091 -0.37882,-0.16983 -0.37577,4.78017 0.003,4.95 0.17463,6.84892 0.38131,4.21983 0.20668,-2.6291 0.20418,-6.6791 -0.005,-9 z m 81.95238,10.09267 c -0.31922,-0.79773 -0.55618,-0.56078 -0.60416,0.60417 -0.0434,1.05416 0.19292,1.64479 0.52522,1.3125 0.33229,-0.33229 0.36781,-1.1948 0.0789,-1.91667 z m -55,-2 c -0.31922,-0.79773 -0.55618,-0.56078 -0.60416,0.60417 -0.0434,1.05416 0.19292,1.64479 0.52522,1.3125 0.33229,-0.33229 0.36781,-1.1948 0.0789,-1.91667 z m 54.03447,-9.54875 c -0.22985,-1.52006 -0.42406,-0.51375 -0.43157,2.23625 -0.007,2.75 0.18056,3.99369 0.41792,2.76375 0.23736,-1.22994 0.24351,-3.47994 0.0136,-5 z m -53.0553,2.48625 c -0.27741,-0.6875 -0.50439,-0.125 -0.50439,1.25 0,1.375 0.22698,1.9375 0.50439,1.25 0.27741,-0.6875 0.27741,-1.8125 0,-2.5 z m 23.02083,0.0625 c -0.31922,-0.79773 -0.55618,-0.56078 -0.60416,0.60417 -0.0434,1.05416 0.19292,1.64479 0.52522,1.3125 0.33229,-0.33229 0.36781,-1.1948 0.0789,-1.91667 z m -0.97738,-11.0625 c -0.23835,-1.2375 -0.43337,-0.225 -0.43337,2.25 0,2.475 0.19502,3.4875 0.43337,2.25 0.23836,-1.2375 0.23836,-3.2625 0,-4.5 z m -20.98233,-4 c -0.22183,-1.7875 -0.40333,-0.325 -0.40333,3.25 0,3.575 0.1815,5.0375 0.40333,3.25 0.22182,-1.7875 0.22182,-4.7125 0,-6.5 z m 52.96593,0.5 c -0.25153,-0.9625 -0.45733,-0.175 -0.45733,1.75 0,1.925 0.2058,2.7125 0.45733,1.75 0.25152,-0.9625 0.25152,-2.5375 0,-3.5 z m -83,-2 c -0.25153,-0.9625 -0.45733,-0.175 -0.45733,1.75 0,1.925 0.2058,2.7125 0.45733,1.75 0.25152,-0.9625 0.25152,-2.5375 0,-3.5 z m 50.0164,-9.5 c -0.23835,-1.2375 -0.43337,-0.225 -0.43337,2.25 0,2.475 0.19502,3.4875 0.43337,2.25 0.23836,-1.2375 0.23836,-3.2625 0,-4.5 z m 33.95655,3 c -0.27741,-0.6875 -0.50439,-0.125 -0.50439,1.25 0,1.375 0.22698,1.9375 0.50439,1.25 0.27741,-0.6875 0.27741,-1.8125 0,-2.5 z m -85,-1 c -0.27741,-0.6875 -0.50438,-0.125 -0.50438,1.25 0,1.375 0.22697,1.9375 0.50438,1.25 0.27741,-0.6875 0.27741,-1.8125 0,-2.5 z m 32,0 c -0.27741,-0.6875 -0.50439,-0.125 -0.50439,1.25 0,1.375 0.22698,1.9375 0.50439,1.25 0.27741,-0.6875 0.27741,-1.8125 0,-2.5 z m 54.03071,-6.48097 c -0.25354,-0.97297 -0.47766,-0.41903 -0.49804,1.23097 -0.0204,1.65 0.18706,2.44606 0.46099,1.76903 0.27392,-0.67703 0.29059,-2.02703 0.0371,-3 z m -53.00988,0.54347 c -0.31922,-0.79773 -0.55618,-0.56078 -0.60416,0.60417 -0.0434,1.05416 0.19292,1.64479 0.52522,1.3125 0.33229,-0.33229 0.36781,-1.1948 0.0789,-1.91667 z m -34.02083,-2.0625 c -0.27741,-0.6875 -0.50438,-0.125 -0.50438,1.25 0,1.375 0.22697,1.9375 0.50438,1.25 0.27741,-0.6875 0.27741,-1.8125 0,-2.5 z m 51.03071,-3.48097 c -0.25354,-0.97297 -0.47766,-0.41903 -0.49804,1.23097 -0.0204,1.65 0.18706,2.44606 0.46099,1.76903 0.27392,-0.67703 0.29059,-2.02703 0.037,-3 z m -16.03071,-1.51903 c -0.27741,-0.6875 -0.50439,-0.125 -0.50439,1.25 0,1.375 0.22698,1.9375 0.50439,1.25 0.27741,-0.6875 0.27741,-1.8125 0,-2.5 z m 53.03071,-2.48097 c -0.25354,-0.97297 -0.47766,-0.41903 -0.49804,1.23097 -0.0204,1.65 0.18706,2.44606 0.46099,1.76903 0.27392,-0.67703 0.29059,-2.02703 0.0371,-3 z m -89,-1 c -0.25354,-0.97297 -0.47766,-0.41903 -0.49804,1.23097 -0.0204,1.65 0.18706,2.44606 0.46099,1.76903 0.27392,-0.67703 0.29059,-2.02703 0.0371,-3 z m 36.99012,-1.45653 c -0.31922,-0.79773 -0.55618,-0.56078 -0.60416,0.60417 -0.0434,1.05416 0.19292,1.64479 0.52522,1.3125 0.33229,-0.33229 0.36781,-1.1948 0.0789,-1.91667 z m 13.97917,-1.0625 c -0.27741,-0.6875 -0.50439,-0.125 -0.50439,1.25 0,1.375 0.22698,1.9375 0.50439,1.25 0.27741,-0.6875 0.27741,-1.8125 0,-2.5 z m 39,-6 c -0.27741,-0.6875 -0.50439,-0.125 -0.50439,1.25 0,1.375 0.22698,1.9375 0.50439,1.25 0.27741,-0.6875 0.27741,-1.8125 0,-2.5 z m -40,-1 c -0.27741,-0.6875 -0.50439,-0.125 -0.50439,1.25 0,1.375 0.22698,1.9375 0.50439,1.25 0.27741,-0.6875 0.27741,-1.8125 0,-2.5 z m -50.93381,-8.5 c -0.21575,-2.0625 -0.39226,-0.375 -0.39226,3.75 0,4.125 0.17651,5.8125 0.39226,3.75 0.21574,-2.0625 0.21574,-5.4375 0,-7.5 z m 39.95464,5.5625 c -0.31922,-0.79773 -0.55618,-0.56078 -0.60416,0.60417 -0.0434,1.05416 0.19292,1.64479 0.52522,1.3125 0.33229,-0.33229 0.36781,-1.1948 0.0789,-1.91667 z m -88.97738,-7.0625 c -0.23835,-1.2375 -0.43337,-0.225 -0.43337,2.25 0,2.475 0.19502,3.4875 0.43337,2.25 0.23836,-1.2375 0.23836,-3.2625 0,-4.5 z m 98.95655,3 c -0.27741,-0.6875 -0.50439,-0.125 -0.50439,1.25 0,1.375 0.22698,1.9375 0.50439,1.25 0.27741,-0.6875 0.27741,-1.8125 0,-2.5 z m 86,-1 c -0.27741,-0.6875 -0.50439,-0.125 -0.50439,1.25 0,1.375 0.22698,1.9375 0.50439,1.25 0.27741,-0.6875 0.27741,-1.8125 0,-2.5 z m -43.9447,-4.48625 c -0.22985,-1.52006 -0.42406,-0.51375 -0.43157,2.23625 -0.007,2.75 0.18056,3.99369 0.41792,2.76375 0.23736,-1.22994 0.24351,-3.47994 0.0136,-5 z m 38.9447,3.48625 c -0.27741,-0.6875 -0.50439,-0.125 -0.50439,1.25 0,1.375 0.22698,1.9375 0.50439,1.25 0.27741,-0.6875 0.27741,-1.8125 0,-2.5 z m 7.03071,-0.48097 c -0.25354,-0.97297 -0.47766,-0.41903 -0.49804,1.23097 -0.0204,1.65 0.18706,2.44606 0.46099,1.76903 0.27392,-0.67703 0.29059,-2.02703 0.0371,-3 z m 2,0 c -0.25354,-0.97297 -0.47766,-0.41903 -0.49804,1.23097 -0.0204,1.65 0.18706,2.44606 0.46099,1.76903 0.27392,-0.67703 0.29059,-2.02703 0.0371,-3 z m 9.99012,1.54347 c -0.31922,-0.79773 -0.55618,-0.56078 -0.60416,0.60417 -0.0434,1.05416 0.19292,1.64479 0.52522,1.3125 0.33229,-0.33229 0.36781,-1.1948 0.0789,-1.91667 z m -196.99012,-2.54347 c -0.25354,-0.97297 -0.47766,-0.41903 -0.49804,1.23097 -0.0204,1.65 0.18706,2.44606 0.46099,1.76903 0.27392,-0.67703 0.29059,-2.02703 0.0371,-3 z m 1.96929,0.48097 c -0.27741,-0.6875 -0.50438,-0.125 -0.50438,1.25 0,1.375 0.22697,1.9375 0.50438,1.25 0.27741,-0.6875 0.27741,-1.8125 0,-2.5 z m 86.02083,1.0625 c -0.31922,-0.79773 -0.55618,-0.56078 -0.60416,0.60417 -0.0434,1.05416 0.19292,1.64479 0.52522,1.3125 0.33229,-0.33229 0.36781,-1.1948 0.0789,-1.91667 z m 87.02415,-3.05084 c -0.23919,-1.24391 -0.44398,-0.46166 -0.45508,1.73834 -0.0111,2.2 0.18461,3.21775 0.4349,2.26166 0.25029,-0.95609 0.25937,-2.75609 0.0202,-4 z m -171.02415,2.05084 c -0.31922,-0.79773 -0.55618,-0.56078 -0.60416,0.60417 -0.0434,1.05416 0.19293,1.64479 0.52522,1.3125 0.33229,-0.33229 0.36782,-1.1948 0.0789,-1.91667 z m 2,0 c -0.31922,-0.79773 -0.55618,-0.56078 -0.60416,0.60417 -0.0434,1.05416 0.19293,1.64479 0.52522,1.3125 0.33229,-0.33229 0.36782,-1.1948 0.0789,-1.91667 z m 2,0 c -0.31922,-0.79773 -0.55618,-0.56078 -0.60416,0.60417 -0.0434,1.05416 0.19293,1.64479 0.52522,1.3125 0.33229,-0.33229 0.36782,-1.1948 0.0789,-1.91667 z m 2,0 c -0.31922,-0.79773 -0.55618,-0.56078 -0.60416,0.60417 -0.0434,1.05416 0.19293,1.64479 0.52522,1.3125 0.33229,-0.33229 0.36782,-1.1948 0.0789,-1.91667 z m 8.12376,-1.33896 c -0.30788,-0.30789 -0.86705,0.24711 -1.24258,1.23333 -0.54268,1.4252 -0.42782,1.54006 0.5598,0.5598 0.68342,-0.67834 0.99067,-1.48524 0.68278,-1.79313 z m 163.87624,-1.66104 c -0.31922,-0.79773 -0.55618,-0.56078 -0.60416,0.60417 -0.0434,1.05416 0.19292,1.64479 0.52522,1.3125 0.33229,-0.33229 0.36781,-1.1948 0.0789,-1.91667 z m -166.02083,-2.0625 c -0.27741,-0.6875 -0.50438,-0.125 -0.50438,1.25 0,1.375 0.22697,1.9375 0.50438,1.25 0.27741,-0.6875 0.27741,-1.8125 0,-2.5 z m 73.02083,1.0625 c -0.31922,-0.79773 -0.55618,-0.56078 -0.60416,0.60417 -0.0434,1.05416 0.19292,1.64479 0.52522,1.3125 0.33229,-0.33229 0.36781,-1.1948 0.0789,-1.91667 z m 7,0 c -0.31922,-0.79773 -0.55618,-0.56078 -0.60416,0.60417 -0.0434,1.05416 0.19292,1.64479 0.52522,1.3125 0.33229,-0.33229 0.36781,-1.1948 0.0789,-1.91667 z m -89,-1 c -0.31922,-0.79773 -0.55618,-0.56078 -0.60416,0.60417 -0.0434,1.05416 0.19293,1.64479 0.52522,1.3125 0.33229,-0.33229 0.36782,-1.1948 0.0789,-1.91667 z m 2,0 c -0.31922,-0.79773 -0.55618,-0.56078 -0.60416,0.60417 -0.0434,1.05416 0.19293,1.64479 0.52522,1.3125 0.33229,-0.33229 0.36782,-1.1948 0.0789,-1.91667 z m -10.16579,-3.62091 c -0.60727,-1.57599 -0.7187,-1.57246 -1.63041,0.0515 -0.68259,1.21586 -0.58663,2.16917 0.31725,3.15161 1.11293,1.20968 1.34307,1.2024 1.63041,-0.0515 0.18402,-0.80301 0.0412,-2.22124 -0.31725,-3.15161 z m 196.86424,3.25647 c 0.34149,-0.88992 0.17385,-1.29132 -0.39301,-0.94098 -0.5437,0.33602 -0.98855,1.0344 -0.98855,1.55194 0,1.43843 0.71677,1.12146 1.38156,-0.61096 z m -14.66628,-1.09389 c 0.18715,-0.56146 -0.34722,-1.02084 -1.1875,-1.02084 -0.84028,0 -1.52778,0.6375 -1.52778,1.41667 0,1.55513 2.17042,1.23873 2.71528,-0.39583 z m -91.03217,-2.54167 c -0.31922,-0.79773 -0.55618,-0.56078 -0.60416,0.60417 -0.0434,1.05416 0.19292,1.64479 0.52522,1.3125 0.33229,-0.3323 0.36781,-1.1948 0.0789,-1.91667 z m 105.74205,0.0664 c -0.64806,-1.04858 -2.42516,-0.20682 -2.42516,1.14873 0,0.50028 0.67242,0.65157 1.49426,0.3362 0.82184,-0.31537 1.24074,-0.98359 0.9309,-1.48493 z m -176.70176,-8.1289 c -0.22183,-1.7875 -0.40333,-0.325 -0.40333,3.25 0,3.575 0.1815,5.0375 0.40333,3.25 0.22182,-1.7875 0.22182,-4.7125 0,-6.5 z m 75.95971,7.0625 c -0.31922,-0.79773 -0.55618,-0.56078 -0.60416,0.60417 -0.0434,1.05416 0.19292,1.64479 0.52522,1.3125 0.33229,-0.3323 0.36781,-1.1948 0.0789,-1.91667 z m 79,-2 c -0.31922,-0.79773 -0.55618,-0.56078 -0.60416,0.60417 -0.0434,1.05416 0.19292,1.64479 0.52522,1.3125 0.33229,-0.3323 0.36781,-1.1948 0.0789,-1.91667 z M 235.48536,298.51489 c -0.22256,-1.79735 -0.40925,-0.56791 -0.41486,2.73209 -0.006,3.3 0.17648,4.77056 0.40466,3.26791 0.22817,-1.50265 0.23276,-4.20265 0.0102,-6 z m 123.95838,3.04459 c -0.31922,-0.79773 -0.55618,-0.56078 -0.60416,0.60417 -0.0434,1.05416 0.19292,1.64479 0.52522,1.3125 0.33229,-0.3323 0.36781,-1.1948 0.0789,-1.91667 z m -179.68311,0.79449 c 0,-0.21616 -0.69837,-0.661 -1.55194,-0.98855 -0.88992,-0.34149 -1.29132,-0.17385 -0.94098,0.39301 0.58726,0.95021 2.49292,1.40545 2.49292,0.59554 z m 148.70726,-4.84533 c -0.23919,-1.24391 -0.44398,-0.46166 -0.45508,1.73834 -0.0111,2.2 0.18461,3.21775 0.4349,2.26166 0.25029,-0.95609 0.25937,-2.75609 0.0202,-4 z m 64.02191,4.63417 c -0.3323,-0.33229 -1.1948,-0.36781 -1.91667,-0.0789 -0.79773,0.31922 -0.56078,0.55618 0.60417,0.60416 1.05416,0.0434 1.64479,-0.19293 1.3125,-0.52522 z m -207.72917,-6.03202 c 0,-0.275 -1.35,0.46129 -3,1.63619 -1.65,1.1749 -3,2.36119 -3,2.63619 0,0.275 1.35,-0.46129 3,-1.63619 1.65,-1.1749 3,-2.36119 3,-2.63619 z m 0.66667,3.18018 c 0,-0.80081 -0.38234,-1.21971 -0.84965,-0.9309 -0.4673,0.28881 -0.59075,0.94401 -0.27431,1.45601 0.80862,1.30838 1.12396,1.16106 1.12396,-0.52511 z m 173.02632,-4.27496 c -0.25354,-0.97297 -0.47766,-0.41903 -0.49804,1.23097 -0.0204,1.65 0.18706,2.44606 0.46099,1.76903 0.27392,-0.67703 0.29059,-2.02703 0.0371,-3 z m -168.56543,-5.01903 c 1.24387,-1.58606 1.2085,-1.62143 -0.37756,-0.37756 -0.9625,0.75485 -1.75,1.54235 -1.75,1.75 0,0.82304 0.82119,0.29331 2.12756,-1.37244 z m 46.53472,-2.5 c -0.27741,-0.6875 -0.50438,-0.125 -0.50438,1.25 0,1.375 0.22697,1.9375 0.50438,1.25 0.27741,-0.6875 0.27741,-1.8125 0,-2.5 z m 91.04498,-9.98834 c -0.23919,-1.24391 -0.44398,-0.46166 -0.45508,1.73834 -0.0111,2.2 0.18461,3.21775 0.4349,2.26166 0.25029,-0.95609 0.25937,-2.75609 0.0202,-4 z m -127.20726,2.23834 c 0.99549,-1.1 1.58497,-2 1.30998,-2 -0.275,0 -1.31449,0.9 -2.30998,2 -0.99549,1.1 -1.58497,2 -1.30997,2 0.27499,0 1.31448,-0.9 2.30997,-2 z m 126.18311,-8.1875 c -0.31922,-0.79773 -0.55618,-0.56078 -0.60416,0.60417 -0.0434,1.05416 0.19292,1.64479 0.52522,1.3125 0.33229,-0.3323 0.36781,-1.1948 0.0789,-1.91667 z m -83.96686,-12.5625 c -0.22912,-1.5125 -0.41659,-0.275 -0.41659,2.75 0,3.025 0.18747,4.2625 0.41659,2.75 0.22913,-1.5125 0.22913,-3.9875 0,-5.5 z m 118.96686,-4.4375 c -0.31922,-0.79773 -0.55618,-0.56078 -0.60416,0.60417 -0.0434,1.05416 0.19292,1.64479 0.52522,1.3125 0.33229,-0.3323 0.36781,-1.1948 0.0789,-1.91667 z m -118,-2 c -0.31922,-0.79773 -0.55618,-0.56078 -0.60416,0.60417 -0.0434,1.05416 0.19293,1.64479 0.52522,1.3125 0.33229,-0.3323 0.36782,-1.1948 0.0789,-1.91667 z m 4.97917,-16.0625 c -0.27741,-0.6875 -0.50438,-0.125 -0.50438,1.25 0,1.375 0.22697,1.9375 0.50438,1.25 0.27741,-0.6875 0.27741,-1.8125 0,-2.5 z m 67.03071,-2.48097 c -0.25354,-0.97297 -0.47766,-0.41903 -0.49804,1.23097 -0.0204,1.65 0.18706,2.44606 0.46099,1.76903 0.27392,-0.67703 0.29059,-2.02703 0.0371,-3 z m -67,-8 c -0.25354,-0.97297 -0.47766,-0.41903 -0.49804,1.23097 -0.0204,1.65 0.18706,2.44606 0.46099,1.76903 0.27392,-0.67703 0.29059,-2.02703 0.0371,-3 z m 66.96929,-2.51903 c -0.27741,-0.6875 -0.50439,-0.125 -0.50439,1.25 0,1.375 0.22698,1.9375 0.50439,1.25 0.27741,-0.6875 0.27741,-1.8125 0,-2.5 z m -75.97917,0.0625 c -0.31922,-0.79773 -0.55618,-0.56078 -0.60416,0.60417 -0.0434,1.05416 0.19293,1.64479 0.52522,1.3125 0.33229,-0.3323 0.36782,-1.1948 0.0789,-1.91667 z m 8,-4 c -0.31922,-0.79773 -0.55618,-0.56078 -0.60416,0.60417 -0.0434,1.05416 0.19293,1.64479 0.52522,1.3125 0.33229,-0.3323 0.36782,-1.1948 0.0789,-1.91667 z m 100.00988,-1.54347 c -0.25354,-0.97297 -0.47766,-0.41903 -0.49804,1.23097 -0.0204,1.65 0.18706,2.44606 0.46099,1.76903 0.27392,-0.67703 0.29059,-2.02703 0.0371,-3 z m -107.00988,-0.45653 c -0.31922,-0.79773 -0.55618,-0.56078 -0.60416,0.60417 -0.0434,1.05416 0.19293,1.64479 0.52522,1.3125 0.33229,-0.3323 0.36782,-1.1948 0.0789,-1.91667 z m -20,-2 c -0.31922,-0.79773 -0.55618,-0.56078 -0.60416,0.60417 -0.0434,1.05416 0.19293,1.64479 0.52522,1.3125 0.33229,-0.3323 0.36782,-1.1948 0.0789,-1.91667 z m 26,-1 c -0.31922,-0.79773 -0.55618,-0.56078 -0.60416,0.60417 -0.0434,1.05416 0.19293,1.64479 0.52522,1.3125 0.33229,-0.3323 0.36782,-1.1948 0.0789,-1.91667 z m -25.02083,-6.0625 c -0.27741,-0.6875 -0.50438,-0.125 -0.50438,1.25 0,1.375 0.22697,1.9375 0.50438,1.25 0.27741,-0.6875 0.27741,-1.8125 0,-2.5 z m 22.83772,-1.75 c -0.48382,-0.78284 -1.05907,-0.84093 -1.72573,-0.17426 -0.55,0.55 -0.67342,1.52841 -0.27427,2.17426 0.48382,0.78284 1.05907,0.84093 1.72573,0.17426 0.55001,-0.55 0.67342,-1.52841 0.27427,-2.17426 z m 78,1.16667 c 0,-1.80866 -1.9573,-1.47847 -2.3455,0.39568 -0.21599,1.04271 0.15888,1.49986 1,1.21948 0.74002,-0.24667 1.3455,-0.9735 1.3455,-1.61516 z m -99.81067,-7.91667 c -0.25153,-0.9625 -0.45733,-0.175 -0.45733,1.75 0,1.925 0.2058,2.7125 0.45733,1.75 0.25152,-0.9625 0.25152,-2.5375 0,-3.5 z m 118.04047,-12.9777 c -0.21648,-2.07476 -0.39722,-0.6223 -0.40166,3.2277 -0.004,3.85 0.17268,5.54754 0.39359,3.7723 0.22091,-1.77523 0.22454,-4.92523 0.008,-7 z m -117.04047,2.9777 c -0.25153,-0.9625 -0.45733,-0.175 -0.45733,1.75 0,1.925 0.2058,2.7125 0.45733,1.75 0.25152,-0.9625 0.25152,-2.5375 0,-3.5 z m 1.02692,-16 c -0.22912,-1.5125 -0.41659,-0.275 -0.41659,2.75 0,3.025 0.18747,4.2625 0.41659,2.75 0.22913,-1.5125 0.22913,-3.9875 0,-5.5 z m 115.94603,-3.5 c -0.27741,-0.6875 -0.50439,-0.125 -0.50439,1.25 0,1.375 0.22698,1.9375 0.50439,1.25 0.27741,-0.6875 0.27741,-1.8125 0,-2.5 z m -114.97917,-4.9375 c -0.31922,-0.79773 -0.55618,-0.56078 -0.60416,0.60417 -0.0434,1.05416 0.19293,1.64479 0.52522,1.3125 0.33229,-0.3323 0.36782,-1.1948 0.0789,-1.91667 z m 43.04029,-44.0625 c -0.22183,-1.7875 -0.40333,-0.325 -0.40333,3.25 0,3.575 0.1815,5.0375 0.40333,3.25 0.22182,-1.7875 0.22182,-4.7125 0,-6.5 z m -4.99867,-32.982095 c -0.22256,-1.79735 -0.40925,-0.56791 -0.41486,2.73209 -0.006,3.3 0.17648,4.77056 0.40466,3.26791 0.22817,-1.50265 0.23276,-4.20265 0.0102,-6 z m 37.95838,-2.95541 c -0.31922,-0.79773 -0.55618,-0.56078 -0.60416,0.60417 -0.0434,1.05416 0.19292,1.64479 0.52522,1.3125 0.33229,-0.33229 0.36781,-1.19479 0.0789,-1.91667 z m -38.02083,-4.0625 c -0.27741,-0.6875 -0.50438,-0.125 -0.50438,1.25 0,1.375 0.22697,1.9375 0.50438,1.25 0.27741,-0.6875 0.27741,-1.8125 0,-2.5 z m 4.33772,-6.25 c 1.29175,-1.375 2.12363,-2.5 1.84863,-2.5 -0.275,0 -1.55688,1.125 -2.84863,2.5 -1.29175,1.375 -2.12363,2.5 -1.84863,2.5 0.275,0 1.55688,-1.125 2.84863,-2.5 z m 11.72917,-6.10417 c -0.3323,-0.33229 -1.1948,-0.36781 -1.91667,-0.0789 -0.79773,0.31922 -0.56078,0.55618 0.60417,0.60416 1.05416,0.0434 1.64479,-0.19292 1.3125,-0.52522 z"
     id="path6679"
     inkscape:connector-curvature="0" />
  <rect
     style="opacity:1;fill:none;stroke:#ffffff;stroke-width:3.1;stroke-miterlimit:4;stroke-dasharray:none;stroke-opacity:1"
     id="rect6684"
     width="564.35217"
     height="564.33997"
     x="2.0004106"
     y="2.5831287" />
  <ellipse
     style="opacity:1;fill:none;stroke:#ffffff;stroke-width:3.1;stroke-miterlimit:4;stroke-dasharray:none;stroke-opacity:1"
     id="path6692"
     cx="284.17648"
     cy="244.89696"
     rx="241.6517"
     ry="241.65169" />
  <path
     sodipodi:type="star"
     style="opacity:1;fill:none;stroke:#ffffff;stroke-width:2.66798615;stroke-miterlimit:4;stroke-dasharray:none;stroke-opacity:1"
     id="path6694"
     sodipodi:sides="3"
     sodipodi:cx="324"
     sodipodi:cy="312.29999"
     sodipodi:r1="296.12161"
     sodipodi:r2="148.06081"
     sodipodi:arg1="2.6568002"
     sodipodi:arg2="3.7039977"
     inkscape:flatsided="false"
     inkscape:rounded="0"
     inkscape:randomized="0"
     d="M 61.99998,450.29998 198.74424,233.35066 335.48851,16.401317 455.00001,243.29998 574.51151,470.19866 318.25575,460.24932 Z"
     inkscape:transform-center-x="-0.17092833"
     inkscape:transform-center-y="-87.412505"
     transform="matrix(0.92844194,-0.04862983,0.03720301,1.1843504,-28.43063,-0.04379785)" />
</svg>
