<?xml version="1.0" encoding="UTF-8" standalone="no"?>
<!-- Created with Inkscape (http://www.inkscape.org/) -->

<svg
   xmlns:dc="http://purl.org/dc/elements/1.1/"
   xmlns:cc="http://creativecommons.org/ns#"
   xmlns:rdf="http://www.w3.org/1999/02/22-rdf-syntax-ns#"
   xmlns:svg="http://www.w3.org/2000/svg"
   xmlns="http://www.w3.org/2000/svg"
   xmlns:sodipodi="http://sodipodi.sourceforge.net/DTD/sodipodi-0.dtd"
   xmlns:inkscape="http://www.inkscape.org/namespaces/inkscape"
   version="1.1"
   id="svg6652"
   width="600"
   height="600.5036"
   viewBox="0 0 599.99999 600.50361"
   sodipodi:docname="kinesioicon.svg"
   inkscape:version="0.92.2 5c3e80d, 2017-08-06">
  <metadata
     id="metadata6658">
    <rdf:RDF>
      <cc:Work
         rdf:about="">
        <dc:format>image/svg+xml</dc:format>
        <dc:type
           rdf:resource="http://purl.org/dc/dcmitype/StillImage" />
        <dc:title />
      </cc:Work>
    </rdf:RDF>
  </metadata>
  <defs
     id="defs6656" />
  <sodipodi:namedview
     pagecolor="#ffffff"
     bordercolor="#666666"
     borderopacity="1"
     objecttolerance="10"
     gridtolerance="10"
     guidetolerance="10"
     inkscape:pageopacity="0"
     inkscape:pageshadow="2"
     inkscape:window-width="1280"
     inkscape:window-height="704"
     id="namedview6654"
     showgrid="false"
     inkscape:zoom="0.5"
     inkscape:cx="343.6765"
     inkscape:cy="299.71786"
     inkscape:window-x="0"
     inkscape:window-y="1"
     inkscape:window-maximized="1"
     inkscape:current-layer="svg6652" />
  <path
     style="fill:#0071e2;stroke:#0071e2;stroke-width:1.0555954;stroke-opacity:1;fill-opacity:1"
     d="m 326.10797,554.35963 c -3.0598,-3.88933 -4.66665,-12.07372 -4.96501,-25.28938 -0.14431,-6.3858 -0.75173,-13.74798 -1.35009,-16.36036 -0.59838,-2.61238 -1.63022,-8.76112 -2.29301,-13.6638 -0.66278,-4.90269 -2.32668,-13.92731 -3.6976,-20.05461 -3.82836,-17.1111 -4.34463,-25.3693 -2.05818,-32.91969 l 1.91415,-6.32096 -4.39296,-18.67085 c -3.29397,-13.99979 -4.65672,-22.49958 -5.4473,-33.97551 -1.26198,-18.31857 -6.34614,-56.08024 -7.45806,-55.39323 -0.43363,0.26816 -1.01289,2.03523 -1.28734,3.9274 -0.27445,1.89206 -2.46468,14.71618 -4.86721,28.49797 -2.40252,13.78179 -4.37182,28.03116 -4.37619,31.66523 -0.0105,8.52049 -1.63046,18.67228 -4.26168,26.70338 -1.7337,5.29161 -2.05985,8.96693 -1.92021,21.63786 0.15629,14.17983 -0.144,16.76259 -4.22923,36.37383 -5.86008,28.13166 -6.50599,32.52927 -6.54974,44.5954 -0.0528,14.5735 -3.49773,29.13525 -7.16808,30.3 -0.95728,0.30381 -5.53684,0.35052 -10.1768,0.10322 -7.86357,-0.41837 -8.63688,-0.67325 -11.39061,-3.75471 -3.59246,-4.02002 -3.31315,-5.40104 2.99697,-14.81818 2.5446,-3.79756 5.35628,-8.65083 6.24817,-10.78506 2.30565,-5.51721 2.07268,-22.20758 -0.57809,-41.41879 -1.27427,-9.23517 -2.23846,-22.21021 -2.31386,-31.13758 -0.1158,-13.72162 0.13815,-16.06907 2.45609,-22.69334 2.3364,-6.67706 2.57105,-8.91322 2.43684,-23.2212 -0.0818,-8.70792 -0.93391,-21.2949 -1.89385,-27.97094 -4.67488,-32.51249 -4.22417,-71.21487 1.01595,-87.23918 1.48998,-4.55633 3.10788,-12.56405 3.59529,-17.79481 0.59556,-6.39085 1.83473,-11.75732 3.77783,-16.36037 2.6554,-6.29036 2.84229,-7.62586 2.28789,-16.34945 -0.33204,-5.22476 -1.23223,-11.5966 -2.00038,-14.15955 l -1.39665,-4.66004 -1.92326,11.29186 c -2.95436,17.34548 -5.97649,25.65495 -18.47718,50.80353 -14.86683,29.90869 -16.35951,34.60769 -15.44307,48.61516 0.58996,9.01778 0.43992,10.82817 -0.99652,12.0201 -1.42629,1.18359 -2.0187,1.10691 -3.78271,-0.48937 -1.15131,-1.04171 -2.09156,-3.24242 -2.09156,-4.8954 0,-4.58831 -1.75045,-3.57337 -2.55763,1.48293 -0.39384,2.46731 -1.41565,5.55465 -2.27063,6.86081 -1.77746,2.71549 -5.49492,3.15637 -6.41439,0.76062 -0.54611,-1.42292 -0.76949,-1.40935 -1.8841,0.11464 -0.69548,0.95098 -2.18322,1.55455 -3.30611,1.34129 -1.56956,-0.29794 -2.11663,-1.42278 -2.36619,-4.8645 -0.28802,-3.97151 -0.61942,-4.47686 -2.93626,-4.47686 -1.43641,0 -2.86915,-0.67091 -3.18388,-1.49084 -0.31468,-0.82012 0.83807,-6.04486 2.56174,-11.61059 1.72366,-5.56589 2.73668,-10.11974 2.25117,-10.11974 -0.48552,0 -1.17636,0.47481 -1.5352,1.05549 -1.49374,2.41659 -8.97331,-0.012 -8.97331,-2.91639 0,-0.60519 2.73157,-2.90045 6.07018,-5.10064 6.50748,-4.28835 18.16033,-14.93275 21.5653,-19.69888 1.15814,-1.62115 4.32207,-11.9127 7.13888,-23.22117 2.78241,-11.17036 6.55863,-24.05401 8.39162,-28.63035 4.1778,-10.43069 5.9868,-21.09169 7.93823,-46.78297 1.69,-22.24926 2.9118,-26.71202 8.97174,-32.77095 2.16025,-2.15986 5.60975,-4.03842 9.40809,-5.12342 7.19347,-2.05488 23.48145,-10.23702 26.06863,-13.09536 1.23073,-1.35969 2.018,-4.43105 2.35658,-9.19368 0.49013,-6.89478 0.3333,-7.48356 -4.36173,-16.37621 -5.44861,-10.31987 -5.86341,-12.65383 -2.64888,-14.905 1.85853,-1.30156 2.17602,-2.474953 1.94392,-7.184532 -0.52541,-10.661556 -0.26143,-11.514998 5.18584,-16.764545 15.32175,-14.765764 37.94592,-5.229024 38.44792,16.206937 0.0885,3.789188 0.63615,6.1422 1.50657,6.47619 1.79835,0.69002 1.74323,5.24616 -0.1068,8.8234 -2.67089,5.16454 -6.9715,19.60998 -6.96747,23.40333 0.009,7.79177 6.6614,14.12689 24.13978,22.98635 11.09282,5.62253 17.37046,11.17884 20.57197,18.20781 1.8559,4.07468 2.17676,7.00019 2.25726,20.58243 0.0885,14.94373 0.2613,16.21742 3.07495,22.68847 1.63958,3.77075 3.43467,10.18293 3.9891,14.24937 0.5544,4.06637 1.63443,8.58093 2.40006,10.03223 0.7656,1.45133 3.16647,5.8966 5.33528,9.87834 2.16878,3.98177 5.50368,12.05644 7.4108,17.94368 5.57192,17.19997 11.91517,31.52389 15.25734,34.45296 1.65601,1.45132 5.8778,4.46378 9.3818,6.69444 7.44222,4.73767 9.04058,6.41297 8.20233,8.59696 -0.77762,2.02615 -5.17947,2.0532 -9.04313,0.0544 -2.97075,-1.53602 -4.31867,-1.24512 -4.28798,0.92549 0.009,0.62894 0.45677,0.44752 0.99526,-0.40448 0.75725,-1.19713 1.44233,-0.47963 3.02375,3.16654 1.12453,2.59291 3.28948,7.50451 4.81096,10.91482 1.52151,3.41032 2.76636,6.86874 2.76636,7.68559 0,2.27368 -3.0279,2.92765 -5.0538,1.09156 -1.68007,-1.52275 -1.80812,-1.32626 -1.80812,2.77462 0,4.00396 -0.2448,4.41334 -2.63922,4.41334 -2.06858,0 -3.1581,-1.02689 -5.03924,-4.74971 l -2.40006,-4.74976 0.1866,5.38052 c 0.21331,6.16146 -0.49026,7.81328 -3.32915,7.81328 -2.36152,0 -4.1976,-2.97066 -4.1976,-6.79135 0,-1.48948 -0.47508,-2.70823 -1.05569,-2.70823 -0.58063,0 -1.05567,1.12937 -1.05567,2.50956 0,1.3802 -0.76401,3.14347 -1.69775,3.91835 -2.63392,2.18549 -4.22047,-0.93418 -5.01028,-9.85194 -0.37308,-4.21237 -1.59894,-11.6961 -2.72422,-16.63062 -1.1252,-4.93448 -2.57065,-11.63775 -3.21207,-14.89628 -1.16811,-5.93407 -3.1704,-9.62556 -13.4544,-24.80484 -3.0321,-4.47537 -6.53785,-11.26659 -7.7905,-15.09163 -1.25267,-3.82494 -4.53057,-13.12919 -7.28425,-20.67608 -2.75362,-7.54685 -5.61662,-16.32709 -6.36219,-19.51147 l -1.35558,-5.78985 -2.41983,6.31763 c -4.50048,11.74974 -3.16542,22.36756 5.97035,47.48239 l 4.6074,12.66618 -0.001,28.49866 c -0.002,25.47462 -0.37169,31.67775 -3.48516,58.45745 l -3.4831,29.95872 2.73267,16.48363 c 5.49179,33.12684 5.49784,33.73019 0.67813,67.51454 -2.3477,16.45634 -4.26858,31.93867 -4.26858,34.40508 0,3.80274 0.96275,5.81721 6.33411,13.25401 3.48372,4.82333 6.3341,9.44016 6.3341,10.25955 0,4.9104 -5.75879,8.73961 -13.14362,8.73961 -3.56548,0 -4.80295,-0.40811 -4.80295,-1.58324 0,-1.05924 1.05945,-1.58328 3.20094,-1.58328 4.64191,0 10.52293,-2.72382 10.52293,-4.87366 0,-0.99822 -2.44136,-5.16044 -5.42526,-9.24941 -2.9839,-4.08896 -5.86182,-9.01521 -6.39538,-10.94719 -0.72491,-2.6251 0.14161,-11.30378 3.42955,-34.34422 5.02872,-35.23996 5.07224,-40.96718 0.51097,-67.24653 -3.0665,-17.6674 -3.26561,-24.85894 -1.14548,-41.37463 3.84739,-29.97062 4.92399,-44.56738 4.96221,-67.27547 0.021,-13.09886 -0.28859,-25.24106 -0.6902,-26.98264 -0.40167,-1.74159 -3.04876,-10.05375 -5.88244,-18.47138 -8.11307,-24.10051 -8.69553,-33.00033 -3.11958,-47.6684 1.1781,-3.09916 2.14224,-8.12838 2.14254,-11.17618 3.9e-4,-4.10592 0.39225,-5.54142 1.5129,-5.54142 1.72976,0 1.66044,-0.19592 5.41135,15.30486 1.54527,6.38582 3.96684,14.69801 5.38128,18.47145 1.41447,3.77338 4.4906,12.32299 6.83583,18.99911 4.2841,12.19528 8.53195,20.29643 14.69614,28.02696 5.31895,6.6705 7.30288,11.48197 10.13461,24.57834 5.13136,23.73181 5.28303,24.27929 5.7522,20.76149 0.84851,-6.36175 4.80421,-3.82655 6.57356,4.21309 0.25559,1.16098 0.52697,0.21128 0.6032,-2.11107 0.31317,-9.53848 3.4719,-8.69078 8.08888,2.17072 1.59583,3.75414 3.04618,6.68106 3.22301,6.50419 0.177,-0.17696 -0.60932,-3.312 -1.74713,-6.96713 -2.66041,-8.54652 -2.65189,-10.67963 0.0425,-10.67963 2.61373,0 2.61187,-0.1589 -0.0627,-5.40059 -2.16421,-4.24147 -2.40355,-8.97754 -0.43998,-8.7064 0.56688,0.0789 2.21451,0.50269 3.66153,0.94381 4.07181,1.24063 1.13472,-1.73275 -4.48221,-4.5375 -6.53497,-3.26321 -8.74603,-6.05215 -12.79036,-16.13341 -1.9668,-4.90272 -4.54974,-11.28883 -5.73975,-14.19152 -1.19007,-2.90265 -3.18653,-8.60239 -4.43662,-12.66605 -1.25007,-4.06373 -3.94961,-10.47592 -5.99897,-14.24935 -2.04937,-3.77346 -4.42672,-8.17849 -5.28299,-9.78897 -0.85626,-1.61049 -2.03117,-6.3504 -2.61087,-10.5331 -0.57981,-4.18261 -2.30115,-10.46469 -3.82536,-13.95989 -2.50191,-5.73737 -2.83066,-8.04806 -3.38184,-23.77105 -0.66885,-19.07885 -1.30932,-21.37545 -7.65676,-27.45468 -1.88761,-1.80791 -6.7574,-4.95496 -10.82181,-6.99348 -4.06436,-2.0386 -11.0918,-6.16486 -15.61649,-9.16968 -6.89217,-4.57701 -8.67753,-6.38249 -11.00602,-11.13014 -2.66327,-5.43029 -2.72399,-5.93724 -1.45321,-12.1384 0.72936,-3.55928 2.65349,-9.79625 4.27583,-13.85996 2.84321,-7.12164 2.87458,-7.40124 0.87005,-7.73902 -1.58525,-0.26754 -1.92108,-0.89441 -1.41267,-2.63877 0.36691,-1.25856 0.95175,-4.763832 1.29973,-7.789575 0.53463,-4.648684 0.1812,-6.424155 -2.28183,-11.457213 -2.34048,-4.783034 -3.77221,-6.345547 -7.26939,-7.933376 -8.34825,-3.790329 -18.39716,-1.590683 -24.19262,5.295718 -2.69329,3.200269 -2.85944,4.013565 -2.85944,13.994958 0,10.080288 -0.1032,10.570238 -2.11302,10.044738 -1.80011,-0.47057 -1.40928,0.73828 2.63921,8.16415 4.61227,8.45987 4.75221,8.99022 4.75221,18.00732 v 9.29078 l -4.12661,3.80906 c -4.69683,4.33536 -15.1291,9.80197 -24.70239,12.9442 -13.58776,4.45984 -16.06599,8.93431 -17.60655,31.78876 -2.11411,31.36312 -3.4275,38.93447 -9.83303,56.68454 -1.9902,5.51499 -4.9181,15.48962 -6.50642,22.16568 -5.78406,24.31179 -5.02626,22.70226 -15.71203,33.37259 -5.31437,5.30671 -9.07265,9.4191 -8.35177,9.13867 2.49018,-0.96886 2.57282,2.8262 0.2169,9.96271 -1.30041,3.93926 -2.58296,7.87468 -2.85009,8.74549 -0.26715,0.87075 0.50802,0.0422 1.7225,-1.84714 3.91586,-6.08331 6.05136,-4.14909 3.77363,3.41795 -1.91508,6.36234 -1.94009,9.85251 -0.0323,4.50799 3.28832,-9.21201 7.16198,-11.71818 7.81319,-5.05512 l 0.34204,3.49991 2.0177,-3.31731 c 2.529,-4.15786 5.1599,-4.36101 5.37132,-0.41477 0.0855,1.59647 0.49186,-1.13469 0.90305,-6.06923 0.87301,-10.47741 2.17233,-13.84845 16.88347,-43.80355 5.70203,-11.61062 11.16133,-23.48505 12.13177,-26.38774 1.88724,-5.64492 4.85385,-19.41604 6.89419,-32.00361 1.25105,-7.71802 3.349,-10.65496 5.33445,-7.46786 2.03218,3.26223 5.407,20.98661 5.50585,28.91642 0.0869,6.95779 -0.48808,10.13828 -3.26569,18.06888 -2.25725,6.44498 -3.37099,11.59518 -3.37099,15.58863 0,3.63424 -1.02488,8.89666 -2.62384,13.47258 -5.70024,16.31252 -6.43343,47.05651 -2.01856,84.64091 3.24663,27.63889 3.21089,48.76607 -0.095,56.10946 -3.05894,6.79516 -3.35052,26.88346 -0.69706,48.02557 3.11868,24.84901 3.61292,33.33272 2.4155,41.46314 -0.8904,6.04564 -1.9691,8.51955 -6.93539,15.90573 -3.23454,4.8105 -5.88099,9.23368 -5.88099,9.82922 0,2.84321 3.92689,4.45632 11.37749,4.67385 4.21065,0.1232 7.81014,0.0305 7.99882,-0.20073 1.62901,-2.01483 4.05218,-15.45075 3.95479,-21.92841 -0.16812,-11.18581 1.38389,-22.4924 6.90064,-50.27046 4.53959,-22.85788 4.78953,-25.01223 4.27679,-36.86247 -0.46279,-10.69501 -0.22275,-13.62735 1.59727,-19.51911 2.73077,-8.83976 5.05664,-23.12169 5.0618,-31.08197 0.006,-8.68688 8.17718,-56.95284 10.70164,-63.21024 1.39113,-3.44815 4.56722,-3.82949 6.21741,-0.74651 1.54805,2.89198 6.94563,43.26686 8.24876,61.70208 0.76791,10.86317 2.06908,18.83091 4.91257,30.08197 3.06685,12.13502 3.74235,16.50728 3.26146,21.1102 -2.0561,19.68145 -1.98235,21.74983 1.34612,37.74411 5.02217,24.1329 6.89517,36.85051 7.03284,47.75207 0.1557,12.33025 2.16433,22.39066 5.13304,25.70993 1.23168,1.37711 2.35821,3.04301 2.50332,3.70185 0.5007,2.27261 -3.81091,1.19111 -5.91526,-1.48366 z m -78.56134,-1.12265 c -0.35074,-0.35047 -1.26132,-0.38807 -2.02337,-0.0831 -0.84216,0.33655 -0.59201,0.58698 0.6378,0.63766 1.11286,0.0488 1.73638,-0.20375 1.38557,-0.55424 z m 101.76612,-1.20944 c 1.34019,-1.70864 1.29051,-1.73101 -0.66252,-0.29855 -1.16124,0.85167 -2.30929,1.68283 -2.55122,1.84705 -0.24182,0.16432 0.0564,0.29853 0.66251,0.29853 0.6063,0 1.75435,-0.83117 2.55123,-1.84712 z M 242.18992,550.8889 c -0.96094,-1.06162 -1.80225,-2.84279 -1.8696,-3.95812 -0.11325,-1.876 -0.15978,-1.88365 -0.62038,-0.10202 -0.43391,1.67807 2.2363,5.99056 3.70929,5.99056 0.29028,0 -0.25837,-0.86857 -1.21931,-1.93024 z m 82.37294,-6.71171 c -0.33703,-0.84195 -0.58717,-0.59182 -0.63781,0.63776 -0.0462,1.11265 0.20372,1.73607 0.55443,1.38532 0.35082,-0.35051 0.38826,-1.26115 0.0831,-2.02308 z m -58.06256,-6.33306 c -0.33702,-0.84205 -0.58715,-0.59186 -0.6378,0.63775 -0.0462,1.11266 0.20365,1.73605 0.55451,1.38539 0.35074,-0.35051 0.38824,-1.2612 0.0834,-2.02314 z m 56.98486,-1.12145 c -0.29278,-0.7257 -0.53247,-0.13177 -0.53247,1.31938 0,1.45135 0.23942,2.04508 0.53247,1.31939 0.2928,-0.72566 0.2928,-1.91311 0,-2.63877 z m -1.0098,-9.49961 c -0.2514,-1.3062 -0.45756,-0.23777 -0.45756,2.37493 0,2.61243 0.2061,3.68107 0.45756,2.37489 0.25169,-1.3062 0.25169,-3.44357 0,-4.74982 z m 15.81136,0.0658 c -0.337,-0.84195 -0.58716,-0.59182 -0.6378,0.63769 -0.0462,1.11269 0.20369,1.73612 0.55449,1.38539 0.3508,-0.35052 0.38827,-1.26112 0.0831,-2.02308 z m -14.76913,-6.90673 c -0.26759,-1.02691 -0.50424,-0.44204 -0.52575,1.29934 -0.021,1.74164 0.1977,2.58186 0.48663,1.86728 0.2892,-0.71471 0.30678,-2.13961 0.0395,-3.16662 z m -70.73073,-1.05541 c -0.26763,-1.02698 -0.50422,-0.44267 -0.52577,1.29925 -0.0216,1.74157 0.19746,2.58187 0.48671,1.86716 0.28919,-0.71457 0.30678,-2.13945 0.0395,-3.16641 z m 85.47787,-1.60337 c -0.2928,-0.72569 -0.53249,-0.13146 -0.53249,1.31933 0,1.45136 0.2394,2.04507 0.53249,1.31943 0.2928,-0.72571 0.2928,-1.91315 0,-2.63876 z m -70.69832,-3.67428 c -0.26763,-1.02691 -0.50422,-0.44204 -0.52576,1.29934 -0.0216,1.74161 0.19746,2.58184 0.48664,1.86721 0.28915,-0.71455 0.30678,-2.13954 0.0398,-3.16655 z m 53.82942,-3.64836 c -0.33704,-0.84196 -0.58718,-0.59185 -0.63785,0.63773 -0.0462,1.1127 0.2037,1.73605 0.55452,1.38538 0.35077,-0.3505 0.38826,-1.26111 0.0834,-2.02311 z m 17.92458,-1.12141 c -0.29281,-0.72574 -0.53248,-0.13176 -0.53248,1.31931 0,1.4513 0.2394,2.04506 0.53248,1.31943 0.29279,-0.7257 0.29279,-1.91312 0,-2.63874 z m -70.73073,-4.22227 c -0.29286,-0.72565 -0.53248,-0.13176 -0.53248,1.31937 0,1.45133 0.23962,2.04503 0.53248,1.3194 0.29287,-0.72567 0.29287,-1.91311 0,-2.63877 z m 51.72844,-1.05547 c -0.29279,-0.72571 -0.53251,-0.13177 -0.53251,1.31938 0,1.45129 0.23942,2.04498 0.53251,1.31931 0.2928,-0.72558 0.2928,-1.91304 0,-2.63869 z m -67.51619,-4.20967 c -0.25245,-1.31297 -0.4687,-0.48695 -0.48041,1.83483 -0.012,2.32213 0.19484,3.39633 0.45911,2.38723 0.26422,-1.00916 0.27384,-2.90912 0.021,-4.22206 z m 87.57417,2.0988 c -0.29279,-0.72575 -0.5325,-0.13176 -0.5325,1.31933 0,1.45134 0.2394,2.04498 0.5325,1.31941 0.29282,-0.7257 0.29282,-1.91314 0,-2.63874 z m -21.08123,-5.78522 c -0.26759,-1.027 -0.50423,-0.44264 -0.52577,1.29922 -0.021,1.74162 0.1977,2.58189 0.48668,1.86727 0.28921,-0.71464 0.30678,-2.1396 0.0397,-3.16649 z m 22.16933,-1.05554 c -0.2676,-1.02697 -0.50424,-0.44206 -0.52578,1.29926 -0.021,1.74162 0.1977,2.58185 0.48673,1.86721 0.28921,-0.71459 0.30674,-2.13946 0.0395,-3.16647 z m -70.74117,-1.53739 c -0.33701,-0.84199 -0.58714,-0.59186 -0.6378,0.63766 -0.0462,1.11269 0.20364,1.73611 0.55452,1.38539 0.35074,-0.3505 0.38824,-1.26114 0.0834,-2.02305 z m -19.02427,-4.288 c -0.29283,-0.7256 -0.5325,-0.13177 -0.5325,1.31938 0,1.45126 0.23959,2.04502 0.5325,1.31939 0.29286,-0.72566 0.29286,-1.9131 0,-2.63877 z m 66.52999,-0.9896 c -0.337,-0.84194 -0.58715,-0.59183 -0.63778,0.63775 -0.0462,1.11266 0.2034,1.73606 0.55443,1.38538 0.35074,-0.35048 0.38825,-1.26111 0.0831,-2.02313 z m 24.25869,-1.12137 c -0.2928,-0.7257 -0.53247,-0.13177 -0.53247,1.31931 0,1.45136 0.2394,2.04509 0.53247,1.31938 0.2928,-0.72566 0.2928,-1.91308 0,-2.63869 z m -91.84437,-5.27762 c -0.29283,-0.72559 -0.53249,-0.13146 -0.53249,1.31943 0,1.4513 0.23961,2.04497 0.53249,1.31937 0.29285,-0.72568 0.29285,-1.91312 0,-2.6388 z m 92.90008,-2.11094 c -0.29279,-0.7257 -0.53251,-0.13176 -0.53251,1.31931 0,1.45136 0.23942,2.04512 0.53251,1.31939 0.29281,-0.72566 0.29281,-1.91314 0,-2.6387 z m -69.65306,-0.98961 c -0.33701,-0.84197 -0.58717,-0.59181 -0.63782,0.63769 -0.0462,1.11269 0.20364,1.73613 0.55445,1.38536 0.35082,-0.35048 0.38825,-1.26112 0.0834,-2.02305 z m -24.3027,-5.34351 c -0.29285,-0.72558 -0.53249,-0.13176 -0.53249,1.31942 0,1.45133 0.2396,2.04507 0.53249,1.31934 0.29284,-0.72565 0.29284,-1.91305 0,-2.63876 z m 95.01147,-1.05546 c -0.29282,-0.72567 -0.5325,-0.13176 -0.5325,1.31931 0,1.45139 0.23938,2.04515 0.5325,1.3194 0.29278,-0.72564 0.29278,-1.91307 0,-2.63871 z M 314.006,470.29141 c -0.33699,-0.84202 -0.58709,-0.59242 -0.63776,0.63765 -0.0462,1.11267 0.20368,1.73616 0.55443,1.38534 0.35074,-0.35048 0.38824,-1.2611 0.0831,-2.02299 z m 31.64852,-5.34352 c -0.29281,-0.72569 -0.53251,-0.13177 -0.53251,1.31937 0,1.45133 0.2394,2.04508 0.53251,1.31934 0.29281,-0.72565 0.29281,-1.91307 0,-2.63871 z m -97.06443,-4.73532 c -0.24271,-1.60438 -0.44764,-0.5421 -0.45556,2.36038 -0.008,2.90272 0.19061,4.21539 0.44116,2.91722 0.25054,-1.29822 0.25711,-3.67318 0.015,-5.2776 z m 64.36681,1.04095 c -0.26551,-1.01581 -0.48278,-0.18509 -0.48278,1.8472 0,2.03185 0.21718,2.86302 0.48278,1.84717 0.2655,-1.01597 0.2655,-2.67835 0,-3.69437 z m -35.89977,0.59425 c -0.33701,-0.84199 -0.58715,-0.59182 -0.6378,0.63771 -0.0462,1.11269 0.20364,1.7361 0.5545,1.38538 0.35077,-0.35052 0.38826,-1.26115 0.0834,-2.02309 z m 1.05568,-6.333 c -0.33702,-0.84204 -0.58714,-0.59186 -0.6378,0.63763 -0.0462,1.11265 0.20365,1.73618 0.55451,1.38537 0.35073,-0.35048 0.38825,-1.2611 0.0834,-2.023 z m 67.57414,-5.85122 c -0.26761,-1.02701 -0.50423,-0.44204 -0.52577,1.29934 -0.021,1.74158 0.19768,2.58178 0.48662,1.86721 0.28919,-0.71458 0.30679,-2.13956 0.0397,-3.16655 z m -67.55026,-10.04741 c -0.2516,-1.30618 -0.45748,-0.23777 -0.45748,2.37488 0,2.6124 0.20592,3.68111 0.45748,2.37495 0.25161,-1.30619 0.25161,-3.44361 0,-4.74983 z m -29.57642,0.52756 c -0.26546,-1.01595 -0.4828,-0.18508 -0.4828,1.84708 0,2.03189 0.21726,2.86307 0.4828,1.84713 0.26548,-1.0159 0.26548,-2.67831 0,-3.69421 z m 96.03859,0.52757 c -0.29282,-0.72569 -0.5325,-0.13177 -0.5325,1.31933 0,1.45133 0.23938,2.04504 0.5325,1.31945 0.29278,-0.72576 0.29278,-1.91321 0,-2.63878 z m -29.51167,-3.15423 c -0.25229,-1.31299 -0.46863,-0.48695 -0.48041,1.83483 -0.012,2.32213 0.19499,3.39636 0.45912,2.3872 0.26431,-1.00917 0.27389,-2.90906 0.021,-4.22203 z m 28.45596,-4.23438 c -0.29279,-0.72562 -0.53251,-0.13177 -0.53251,1.31946 0,1.45125 0.23942,2.04496 0.53251,1.31938 0.29281,-0.72576 0.29281,-1.9132 0,-2.63884 z m -1.05571,-6.33303 c -0.2928,-0.72571 -0.53247,-0.13177 -0.53247,1.31941 0,1.45132 0.2394,2.04504 0.53247,1.31937 0.2928,-0.72561 0.2928,-1.91307 0,-2.63878 z m -89.733,-3.16653 c -0.29286,-0.7257 -0.53248,-0.13176 -0.53248,1.31945 0,1.45125 0.23957,2.04501 0.53248,1.31932 0.29283,-0.72564 0.29283,-1.91311 0,-2.63877 z m 88.69934,-2.04505 c -0.33703,-0.84194 -0.58715,-0.59179 -0.63782,0.6377 -0.0462,1.11269 0.2037,1.73614 0.55453,1.38539 0.3508,-0.35051 0.38822,-1.26118 0.0831,-2.02309 z m -87.5714,-16.98592 c -0.2214,-2.44973 -0.39989,-0.17937 -0.3967,5.04547 0.003,5.22478 0.18436,7.22917 0.40253,4.45402 0.21821,-2.77497 0.21552,-7.04976 -0.006,-9.49949 z m 86.51571,10.65288 c -0.33702,-0.842 -0.58711,-0.59186 -0.63782,0.63775 -0.0462,1.11265 0.20369,1.73606 0.55447,1.38535 0.3508,-0.35048 0.38824,-1.26117 0.0831,-2.0231 z m -58.06255,-2.11098 c -0.33701,-0.84204 -0.58714,-0.59182 -0.63781,0.63766 -0.0462,1.11272 0.20365,1.73613 0.55445,1.38539 0.35082,-0.35051 0.38825,-1.26118 0.0834,-2.02305 z m 57.04324,-10.07884 c -0.2427,-1.60439 -0.44765,-0.54211 -0.45554,2.36038 -0.006,2.90267 0.19079,4.21545 0.44114,2.9172 0.25051,-1.29824 0.2571,-3.67311 0.015,-5.27758 z m -56.00954,2.62422 c -0.29288,-0.7256 -0.53249,-0.13146 -0.53249,1.31945 0,1.45133 0.2396,2.04502 0.53249,1.31938 0.29286,-0.72563 0.29286,-1.91306 0,-2.63883 z m 24.30267,0.0658 c -0.33699,-0.84195 -0.58711,-0.59182 -0.6378,0.63769 -0.0462,1.11269 0.20372,1.73612 0.55452,1.38539 0.35075,-0.35051 0.38823,-1.26112 0.0831,-2.02308 z m -1.03176,-11.67654 c -0.25171,-1.30621 -0.4575,-0.23777 -0.4575,2.37484 0,2.61245 0.20609,3.68107 0.4575,2.37494 0.2517,-1.30619 0.2517,-3.44356 0,-4.74978 z m -22.15071,-4.22205 c -0.23418,-1.88674 -0.42582,-0.34322 -0.42582,3.43037 0,3.77344 0.1916,5.31722 0.42582,3.43046 0.23418,-1.88679 0.23418,-4.97413 0,-6.86083 z m 55.91519,0.52759 c -0.2655,-1.01599 -0.48279,-0.18509 -0.48279,1.84714 0,2.03186 0.2175,2.8631 0.48279,1.84712 0.2655,-1.01595 0.2655,-2.67839 0,-3.69426 z m -87.62164,-2.11104 c -0.26547,-1.01591 -0.48281,-0.18509 -0.48281,1.84719 0,2.03182 0.21726,2.86303 0.48281,1.84714 0.26547,-1.01596 0.26547,-2.67842 0,-3.69433 z m 52.80144,-10.02733 c -0.2517,-1.30618 -0.45754,-0.23776 -0.45754,2.37489 0,2.61244 0.20611,3.68106 0.45754,2.37493 0.25169,-1.30621 0.25169,-3.44355 0,-4.74982 z m 35.84735,3.16654 c -0.29281,-0.72564 -0.53246,-0.13147 -0.53246,1.3194 0,1.4513 0.23938,2.04501 0.53246,1.31932 0.29279,-0.72556 0.29279,-1.91302 0,-2.63872 z m -89.73302,-1.05533 c -0.29283,-0.72575 -0.5325,-0.13146 -0.5325,1.31931 0,1.45136 0.23959,2.04506 0.5325,1.31943 0.29286,-0.7257 0.29286,-1.91312 0,-2.63874 z m 33.78185,0 c -0.29286,-0.72575 -0.53249,-0.13146 -0.53249,1.31931 0,1.45136 0.23964,2.04506 0.53249,1.31943 0.29284,-0.7257 0.29284,-1.91312 0,-2.63874 z m 57.03926,-6.84075 c -0.2676,-1.02701 -0.50423,-0.44207 -0.52575,1.29925 -0.021,1.74163 0.19771,2.58185 0.48663,1.86727 0.2892,-0.71465 0.30681,-2.13958 0.0396,-3.16652 z m -55.9616,0.5736 c -0.337,-0.84193 -0.58715,-0.59178 -0.6378,0.6378 -0.0462,1.11266 0.20364,1.73606 0.55445,1.38536 0.35082,-0.3505 0.38824,-1.26112 0.0834,-2.02316 z m -35.9152,-2.17685 c -0.29283,-0.72569 -0.53249,-0.13146 -0.53249,1.31933 0,1.45128 0.23961,2.04498 0.53249,1.31941 0.29285,-0.72569 0.29285,-1.91314 0,-2.63874 z m 53.87223,-3.67422 c -0.26759,-1.02699 -0.50423,-0.44205 -0.52577,1.29933 -0.021,1.74156 0.1977,2.5818 0.48665,1.86721 0.28921,-0.71464 0.30675,-2.13955 0.0389,-3.16654 z m -16.92334,-1.60335 c -0.29286,-0.72568 -0.53248,-0.13176 -0.53248,1.31939 0,1.4513 0.23964,2.04499 0.53248,1.31932 0.29283,-0.7256 0.29283,-1.91308 0,-2.63871 z m 55.98359,-2.61865 c -0.2676,-1.027 -0.5042,-0.44271 -0.52576,1.2993 -0.021,1.74156 0.1977,2.58176 0.48664,1.86721 0.28919,-0.71471 0.30681,-2.13955 0.0397,-3.16651 z m -93.95574,-1.05552 c -0.26763,-1.02698 -0.50422,-0.44267 -0.52576,1.29925 -0.0216,1.74159 0.19746,2.58186 0.48664,1.86721 0.28915,-0.71464 0.30678,-2.13951 0.0397,-3.16646 z m 39.04983,-1.53745 c -0.337,-0.84198 -0.58715,-0.59185 -0.6378,0.63775 -0.0462,1.11266 0.20364,1.73601 0.55451,1.38535 0.35074,-0.35047 0.38825,-1.26109 0.0834,-2.0231 z m 14.75757,-1.12148 c -0.2928,-0.7256 -0.53246,-0.13177 -0.53246,1.31941 0,1.45126 0.23939,2.04507 0.53246,1.31939 0.2928,-0.72569 0.2928,-1.91313 0,-2.6388 z m 41.17165,-6.333 c -0.29282,-0.72568 -0.5325,-0.13177 -0.5325,1.31935 0,1.45138 0.23938,2.04513 0.5325,1.31937 0.29278,-0.72566 0.29278,-1.9131 0,-2.63872 z M 302.3715,353.064 c -0.2928,-0.72565 -0.53246,-0.13146 -0.53246,1.31937 0,1.45124 0.23939,2.04503 0.53246,1.31937 0.29282,-0.72567 0.29282,-1.91312 0,-2.63874 z m -53.76991,-8.97156 c -0.22776,-2.17701 -0.41412,-0.39595 -0.41412,3.95807 0,4.35399 0.18637,6.13515 0.41412,3.95817 0.22774,-2.17701 0.22774,-5.73926 0,-7.91624 z m 42.17942,5.87122 c -0.33702,-0.842 -0.58714,-0.59178 -0.63781,0.63771 -0.0462,1.11267 0.20364,1.73615 0.5545,1.38531 0.35076,-0.35048 0.38824,-1.26106 0.0834,-2.02302 z m -93.93187,-7.45451 c -0.25161,-1.30624 -0.45751,-0.23775 -0.45751,2.37488 0,2.61236 0.20593,3.68107 0.45751,2.37485 0.25159,-1.30614 0.25159,-3.44356 0,-4.74973 z m 104.46671,3.16653 c -0.29281,-0.72568 -0.53252,-0.13147 -0.53252,1.31935 0,1.45132 0.23941,2.04507 0.53252,1.31943 0.29279,-0.7257 0.29279,-1.91316 0,-2.63878 z m 90.78868,-1.05556 c -0.2928,-0.72558 -0.53247,-0.13146 -0.53247,1.31943 0,1.45132 0.2394,2.04504 0.53247,1.31933 0.29281,-0.72563 0.29281,-1.91308 0,-2.63876 z m -46.39164,-4.73521 c -0.24269,-1.60444 -0.44765,-0.5421 -0.45557,2.36034 -0.006,2.9026 0.1908,4.2154 0.44117,2.91722 0.25052,-1.29828 0.25712,-3.67314 0.015,-5.27756 z m 41.11326,3.67972 c -0.2928,-0.72566 -0.53249,-0.13147 -0.53249,1.3194 0,1.45133 0.23939,2.04509 0.53249,1.3194 0.29282,-0.7257 0.29282,-1.91311 0,-2.6388 z m 7.42216,-0.50758 c -0.2676,-1.02696 -0.50421,-0.44203 -0.52575,1.29936 -0.021,1.74156 0.19771,2.5818 0.48667,1.86721 0.28921,-0.71457 0.30677,-2.13955 0.0396,-3.16657 z m 2.11141,0 c -0.2676,-1.02696 -0.50425,-0.44203 -0.52579,1.29936 -0.021,1.74156 0.1977,2.5818 0.48666,1.86721 0.28922,-0.71457 0.30674,-2.13955 0.0396,-3.16657 z m 10.54637,1.62923 c -0.33702,-0.84209 -0.58714,-0.59182 -0.63778,0.63764 -0.0462,1.11266 0.2037,1.73617 0.55447,1.38539 0.35077,-0.35051 0.38827,-1.26112 0.0831,-2.02303 z m -207.95904,-2.68505 c -0.26764,-1.02701 -0.50424,-0.44207 -0.52577,1.29931 -0.0216,1.74159 0.19746,2.5818 0.48665,1.86721 0.28914,-0.71455 0.30677,-2.13954 0.0396,-3.16652 z m 2.07894,0.50756 c -0.29286,-0.72567 -0.53249,-0.13176 -0.53249,1.31933 0,1.4514 0.23965,2.04513 0.53249,1.31937 0.29282,-0.72562 0.29282,-1.9131 0,-2.6387 z m 90.8107,1.12145 c -0.33701,-0.84205 -0.58715,-0.59246 -0.6378,0.63771 -0.0462,1.11266 0.20363,1.73609 0.55444,1.38537 0.35076,-0.3505 0.38826,-1.26114 0.0834,-2.02308 z m 91.86989,-3.22019 c -0.2523,-1.31291 -0.46866,-0.48695 -0.48043,1.83483 -0.012,2.32213 0.195,3.39636 0.45913,2.38726 0.26429,-1.00915 0.2739,-2.9091 0.021,-4.22209 z m -180.54724,2.1647 c -0.33701,-0.84204 -0.58713,-0.59185 -0.63779,0.6377 -0.0462,1.11265 0.20363,1.73613 0.55445,1.38538 0.35075,-0.35051 0.38825,-1.26115 0.0834,-2.02308 z m 2.11137,0 c -0.33701,-0.84204 -0.58714,-0.59185 -0.6378,0.6377 -0.0462,1.11265 0.20364,1.73613 0.5545,1.38538 0.35075,-0.35051 0.38825,-1.26115 0.0834,-2.02308 z m 2.11136,0 c -0.33702,-0.84204 -0.58715,-0.59185 -0.6378,0.6377 -0.0462,1.11265 0.20363,1.73613 0.55445,1.38538 0.35075,-0.35051 0.38825,-1.26115 0.0834,-2.02308 z m 2.11137,0 c -0.337,-0.84204 -0.58715,-0.59185 -0.6378,0.6377 -0.0462,1.11265 0.20363,1.73613 0.55446,1.38538 0.3508,-0.35051 0.3883,-1.26115 0.0834,-2.02308 z m 8.57611,-1.41327 c -0.32501,-0.32502 -0.91532,0.26061 -1.31176,1.30177 -0.57294,1.50432 -0.45168,1.62554 0.59093,0.59123 0.72147,-0.71602 1.04581,-1.56765 0.72079,-1.89264 z m 173.00132,-1.75324 c -0.33703,-0.84205 -0.58715,-0.59186 -0.63781,0.63765 -0.0462,1.11269 0.20369,1.73612 0.55449,1.38538 0.35077,-0.35051 0.38826,-1.26112 0.0831,-2.02303 z m -175.26532,-2.17675 c -0.29288,-0.72559 -0.53249,-0.13146 -0.53249,1.31942 0,1.45133 0.23956,2.04509 0.53249,1.31944 0.29286,-0.72571 0.29286,-1.91317 0,-2.63886 z m 77.08682,1.12153 c -0.33701,-0.84202 -0.58714,-0.59182 -0.6378,0.63764 -0.0462,1.11274 0.20364,1.73618 0.5545,1.38535 0.35075,-0.35045 0.38825,-1.26105 0.0834,-2.02299 z m 7.38975,0 c -0.33699,-0.84202 -0.58712,-0.59182 -0.63778,0.63764 -0.0462,1.11274 0.20366,1.73618 0.5545,1.38535 0.35076,-0.35045 0.38828,-1.26105 0.0831,-2.02299 z m -93.95573,-1.05548 c -0.33701,-0.84202 -0.58715,-0.59185 -0.6378,0.63768 -0.0462,1.11263 0.20363,1.73612 0.55451,1.38532 0.35074,-0.35049 0.38824,-1.26112 0.0834,-2.023 z m 2.11136,0 c -0.337,-0.84202 -0.58712,-0.59185 -0.6378,0.63768 -0.0462,1.11263 0.20366,1.73612 0.55451,1.38532 0.35074,-0.35049 0.38826,-1.26112 0.0834,-2.023 z m -10.73185,-3.82189 c -0.64108,-1.66351 -0.75871,-1.65974 -1.72119,0.0544 -0.7206,1.28339 -0.61929,2.28963 0.33491,3.32658 1.17491,1.27682 1.41786,1.26919 1.72121,-0.0544 0.19424,-0.84763 0.0438,-2.34449 -0.33493,-3.32654 z m 207.82618,3.43719 c 0.36054,-0.93937 0.18358,-1.36299 -0.41492,-0.99326 -0.57399,0.35473 -1.04358,1.09188 -1.04358,1.63811 0,1.51828 0.7567,1.18365 1.4585,-0.64485 z m -15.48296,-1.15463 c 0.19769,-0.59303 -0.36652,-1.07749 -1.25362,-1.07749 -0.88707,0 -1.61281,0.67288 -1.61281,1.4953 0,1.64146 2.29124,1.30744 2.86643,-0.41781 z m -96.10106,-2.68271 c -0.33701,-0.84207 -0.58715,-0.59179 -0.63782,0.63771 -0.0462,1.11261 0.20364,1.73605 0.55452,1.3853 0.35081,-0.35049 0.38824,-1.26112 0.0834,-2.02301 z m 111.63002,0.0705 c -0.68412,-1.10679 -2.5602,-0.21849 -2.5602,1.21249 0,0.52819 0.70986,0.6877 1.57751,0.35474 0.86755,-0.33293 1.30979,-1.03815 0.98269,-1.56729 z m -186.54097,-8.58012 c -0.23419,-1.88675 -0.42579,-0.34322 -0.42579,3.43037 0,3.77348 0.19156,5.31711 0.42579,3.43043 0.23417,-1.88675 0.23417,-4.97404 0,-6.8608 z m 80.18935,7.45446 c -0.33701,-0.84196 -0.58714,-0.59183 -0.63779,0.63775 -0.0462,1.11269 0.20362,1.73611 0.55451,1.38539 0.3508,-0.35052 0.38824,-1.26115 0.0834,-2.02314 z m 83.39892,-2.11097 c -0.337,-0.84199 -0.58714,-0.59185 -0.63778,0.63768 -0.0462,1.11269 0.2037,1.73618 0.55449,1.38535 0.35077,-0.35046 0.38826,-1.26111 0.0831,-2.02303 z M 248.59764,315.08515 c -0.23496,-1.89711 -0.432,-0.59971 -0.43794,2.88379 -0.006,3.48317 0.1863,5.03539 0.42719,3.44929 0.24085,-1.58609 0.2457,-4.43591 0.0105,-6.33308 z m 130.86073,3.21367 c -0.33707,-0.84205 -0.58717,-0.59186 -0.63785,0.63767 -0.0462,1.11266 0.20371,1.73609 0.55452,1.38533 0.35076,-0.35052 0.38824,-1.26115 0.0831,-2.023 z M 189.77,319.13739 c 0,-0.22844 -0.73725,-0.69773 -1.63834,-1.0434 -0.93949,-0.36086 -1.36322,-0.18389 -0.9934,0.41477 0.61997,1.00295 2.63174,1.4835 2.63174,0.62863 z m 156.98767,-5.11427 c -0.2523,-1.31297 -0.46863,-0.48695 -0.48041,1.83476 -0.012,2.32211 0.19499,3.39637 0.45912,2.38727 0.26431,-1.00916 0.27389,-2.90912 0.021,-4.22203 z m 67.58681,4.89135 c -0.3508,-0.3505 -1.26132,-0.38807 -2.02337,-0.0837 -0.84217,0.33655 -0.59199,0.58698 0.63782,0.6377 1.11286,0.0485 1.73634,-0.20373 1.38555,-0.55422 z m -219.29607,-6.36708 c 0,-0.28982 -1.42518,0.4869 -3.16703,1.72703 -1.74189,1.24013 -3.16705,2.4923 -3.16705,2.78257 0,0.2898 1.42516,-0.48695 3.16705,-1.72705 1.74185,-1.24014 3.16703,-2.49235 3.16703,-2.78255 z m 0.70379,3.3567 c 0,-0.84525 -0.40361,-1.28744 -0.89696,-0.98253 -0.49336,0.30441 -0.62363,0.99637 -0.28954,1.53676 0.85363,1.38105 1.18653,1.22554 1.18653,-0.55423 z m 182.66091,-4.51224 c -0.2676,-1.02701 -0.50424,-0.44204 -0.52578,1.29933 -0.021,1.74157 0.19768,2.58176 0.48665,1.86721 0.2892,-0.71465 0.30677,-2.13958 0.0397,-3.16654 z M 200.4615,306.09428 c 1.31313,-1.67416 1.27578,-1.71143 -0.39859,-0.3984 -1.01608,0.79666 -1.84742,1.6279 -1.84742,1.84713 0,0.86873 0.86691,0.30926 2.24601,-1.44861 z m 49.12589,-2.63886 c -0.29285,-0.72559 -0.53249,-0.13146 -0.53249,1.31946 0,1.45127 0.2396,2.045 0.53249,1.3194 0.29284,-0.7257 0.29284,-1.91312 0,-2.63886 z m 96.11463,-10.54274 c -0.2523,-1.31297 -0.46872,-0.48692 -0.4805,1.83483 -0.012,2.32215 0.19501,3.39636 0.45914,2.3872 0.26428,-1.00915 0.2739,-2.90904 0.021,-4.22203 z m -134.29053,2.36265 c 1.05093,-1.16112 1.67323,-2.11103 1.38292,-2.11103 -0.29026,0 -1.38766,0.94991 -2.43859,2.11103 -1.05094,1.16099 -1.67324,2.11098 -1.38292,2.11098 0.29029,0 1.38767,-0.94999 2.43859,-2.11098 z m 133.20932,-8.64206 c -0.337,-0.84197 -0.58713,-0.59183 -0.63781,0.63775 -0.0462,1.11266 0.2037,1.73606 0.55452,1.38539 0.35078,-0.35049 0.38824,-1.26112 0.0831,-2.02314 z m -88.64235,-13.2598 c -0.24185,-1.59645 -0.43979,-0.28982 -0.43979,2.90269 0,3.19292 0.19789,4.49902 0.43979,2.90262 0.24187,-1.59644 0.24187,-4.20884 0,-5.80531 z m 125.59124,-4.6838 c -0.33698,-0.84199 -0.58713,-0.59182 -0.63777,0.63771 -0.0462,1.11264 0.2037,1.73612 0.5545,1.38537 0.35072,-0.35051 0.38827,-1.26113 0.0831,-2.02308 z m -124.57054,-2.111 c -0.33702,-0.84202 -0.58715,-0.59186 -0.6378,0.63771 -0.0462,1.1127 0.20364,1.73606 0.55451,1.38531 0.35082,-0.35049 0.38824,-1.26108 0.0834,-2.02302 z m 5.25642,-16.95412 c -0.29282,-0.72563 -0.53248,-0.13147 -0.53248,1.31938 0,1.4513 0.23958,2.04507 0.53248,1.31936 0.29286,-0.7256 0.29286,-1.91306 0,-2.63874 z m 70.76317,-2.61865 c -0.2676,-1.02698 -0.50425,-0.44206 -0.52579,1.29932 -0.021,1.74156 0.19742,2.5818 0.48665,1.86721 0.2892,-0.71464 0.30677,-2.13954 0.0396,-3.16653 z M 262.288,238.56183 c -0.26762,-1.02697 -0.50423,-0.44265 -0.52576,1.29927 -0.0216,1.74162 0.19745,2.58186 0.48671,1.86727 0.28915,-0.7147 0.30677,-2.13954 0.0396,-3.16654 z m 70.69833,-2.65885 c -0.29281,-0.72569 -0.5325,-0.13177 -0.5325,1.31934 0,1.4514 0.23938,2.04505 0.5325,1.31937 0.29279,-0.72565 0.29279,-1.9131 0,-2.63871 z m -80.2099,0.0658 c -0.33701,-0.84203 -0.58714,-0.59181 -0.6378,0.63771 -0.0462,1.11264 0.20363,1.73611 0.5545,1.38528 0.35082,-0.35049 0.38832,-1.26104 0.0834,-2.02299 z m 8.44546,-4.22203 c -0.33702,-0.84202 -0.58715,-0.59246 -0.6378,0.63762 -0.0462,1.11275 0.20363,1.73616 0.5545,1.38537 0.35081,-0.35046 0.38825,-1.26107 0.0834,-2.02299 z m 105.57869,-1.62916 c -0.2676,-1.02696 -0.50423,-0.44264 -0.52574,1.29928 -0.021,1.74158 0.19768,2.58188 0.48664,1.86722 0.2892,-0.71462 0.30676,-2.13955 0.0397,-3.1665 z m -112.96846,-0.48145 c -0.33702,-0.84205 -0.58717,-0.59186 -0.6378,0.63768 -0.0462,1.11266 0.20363,1.73609 0.55449,1.38539 0.35077,-0.35048 0.38827,-1.26112 0.0834,-2.02307 z m -21.11368,-2.111 c -0.337,-0.84199 -0.58714,-0.59181 -0.63779,0.63765 -0.0462,1.11266 0.20365,1.73616 0.55452,1.38539 0.35075,-0.35054 0.38825,-1.26115 0.0834,-2.02304 z m 27.44777,-1.05555 c -0.33702,-0.84202 -0.58715,-0.5918 -0.63781,0.63769 -0.0462,1.11269 0.20364,1.73614 0.5545,1.38539 0.35077,-0.35051 0.38826,-1.26114 0.0834,-2.02308 z m -26.41405,-6.39902 c -0.29288,-0.72563 -0.53249,-0.13176 -0.53249,1.31939 0,1.45136 0.23957,2.04508 0.53249,1.31938 0.29285,-0.72569 0.29285,-1.91311 0,-2.63877 z m 24.10936,-1.84717 c -0.5107,-0.82624 -1.11803,-0.88748 -1.8218,-0.18388 -0.58067,0.58094 -0.71093,1.61326 -0.28957,2.29496 0.51077,0.82637 1.11805,0.88759 1.82181,0.18389 0.58069,-0.5809 0.71094,-1.6133 0.2895,-2.29503 z m 82.34325,1.23151 c 0,-1.90909 -2.06628,-1.56054 -2.47611,0.41777 -0.228,1.10058 0.1677,1.5831 1.05567,1.28716 0.78127,-0.26062 1.42044,-1.02755 1.42044,-1.70484 z m -105.36839,-8.35597 c -0.26546,-1.01597 -0.48281,-0.18509 -0.48281,1.84708 0,2.03186 0.21727,2.8631 0.48281,1.84713 0.26551,-1.0159 0.26551,-2.67831 0,-3.69421 z m 124.6133,-13.69809 c -0.22831,-2.18989 -0.41938,-0.65686 -0.42399,3.40681 -0.003,4.06372 0.18238,5.85548 0.41545,3.98174 0.23312,-1.87374 0.237,-5.19862 0.009,-7.38855 z m -123.55761,3.143 c -0.26546,-1.01595 -0.4828,-0.18511 -0.4828,1.84706 0,2.03192 0.21726,2.8631 0.4828,1.84718 0.26548,-1.01595 0.26548,-2.67836 0,-3.69424 z m 1.0841,-16.88819 c -0.24186,-1.59645 -0.43979,-0.28981 -0.43979,2.90271 0,3.19286 0.19789,4.49908 0.43979,2.90255 0.24186,-1.59637 0.24186,-4.20876 0,-5.80526 z m 122.40223,-3.69424 c -0.29282,-0.72569 -0.53251,-0.13177 -0.53251,1.31944 0,1.45127 0.23939,2.04498 0.53251,1.31933 0.29278,-0.72569 0.29278,-1.91309 0,-2.63877 z m -121.38153,-5.21205 c -0.33702,-0.84199 -0.58714,-0.59186 -0.6378,0.63766 -0.0462,1.11269 0.20363,1.73611 0.55451,1.38539 0.35075,-0.3505 0.38825,-1.26114 0.0834,-2.02305 z m 45.4369,-46.50834 c -0.2342,-1.88676 -0.42582,-0.34326 -0.42582,3.43037 0,3.77347 0.19158,5.31719 0.42582,3.43044 0.23416,-1.88668 0.23416,-4.97409 0,-6.86081 z m -5.27704,-34.812856 c -0.23494,-1.897125 -0.43198,-0.599737 -0.43793,2.883745 -0.006,3.483151 0.18637,5.035421 0.42721,3.449301 0.24083,-1.586056 0.2457,-4.435891 0.0105,-6.333046 z m 40.07202,-3.119421 c -0.337,-0.842068 -0.58715,-0.591849 -0.63778,0.637689 -0.0462,1.112601 0.2034,1.736106 0.55443,1.385297 0.35074,-0.350494 0.38825,-1.261119 0.0831,-2.022986 z m -40.13791,-4.288094 c -0.29288,-0.725598 -0.53252,-0.131465 -0.53252,1.3194 0,1.45136 0.2396,2.045087 0.53252,1.319399 0.29285,-0.725657 0.29285,-1.913096 0,-2.638799 z m 4.57925,-6.596908 c 1.36367,-1.45127 2.24187,-2.638769 1.95156,-2.638769 -0.29028,0 -1.64358,1.187499 -3.00725,2.638769 -1.36368,1.451301 -2.24189,2.638724 -1.95158,2.638724 0.29029,0 1.64358,-1.187423 3.00727,-2.638724 z m 12.38226,-6.442936 c -0.3508,-0.350478 -1.26132,-0.3881 -2.0234,-0.08369 -0.84214,0.336551 -0.59198,0.586981 0.63782,0.637689 1.11287,0.04838 1.73637,-0.203749 1.38558,-0.554242 z"
     id="path6679"
     inkscape:connector-curvature="0" />
  <rect
     style="opacity:1;fill:none;stroke:#0071e2;stroke-width:4.22324848;stroke-miterlimit:4;stroke-dasharray:none;stroke-opacity:1;fill-opacity:1"
     id="rect6684"
     width="595.77673"
     height="595.66541"
     x="2.1116242"
     y="2.7265868" />
  <ellipse
     style="opacity:1;fill:none;stroke:#0071e2;stroke-width:5.27439642;stroke-miterlimit:4;stroke-dasharray:none;stroke-opacity:1;fill-opacity:1"
     id="path6692"
     cx="300"
     cy="262.71271"
     rx="255.10751"
     ry="255.06529" />
  <path
     sodipodi:type="star"
     style="opacity:1;fill:none;stroke:#0071e2;stroke-width:4.30000019;stroke-miterlimit:4;stroke-dasharray:none;stroke-opacity:1;fill-opacity:1"
     id="path6694"
     sodipodi:sides="3"
     sodipodi:cx="324"
     sodipodi:cy="312.29999"
     sodipodi:r1="296.12161"
     sodipodi:r2="148.06081"
     sodipodi:arg1="2.6568002"
     sodipodi:arg2="3.7039977"
     inkscape:flatsided="false"
     inkscape:rounded="0"
     inkscape:randomized="0"
     d="M 61.99998,450.29998 198.74424,233.35066 335.48851,16.401317 455.00001,243.29998 574.51151,470.19866 318.25575,460.24932 Z"
     inkscape:transform-center-x="-0.18048515"
     inkscape:transform-center-y="-91.22033"
     transform="matrix(0.98020223,-0.05074825,0.03927711,1.2359421,-30.034827,2.0733932)" />
</svg>
